<svg xmlns="http://www.w3.org/2000/svg" width="284" height="284" viewBox="0 0 284 284">
    <g id="Grupo_23" data-name="Grupo 23" transform="translate(1171 -1144)">
        <circle id="Elipse_26" data-name="Elipse 26" cx="142" cy="142" r="142" transform="translate(-887 1144) rotate(90)" fill="#524439" />
        <path id="Subtração_1" data-name="Subtração 1" d="M155,452a143.046,143.046,0,0,1-28.618-2.885,141.224,141.224,0,0,1-50.776-21.366,142.415,142.415,0,0,1-51.448-62.476,141.287,141.287,0,0,1-8.274-26.655A143.264,143.264,0,0,1,17.1,275.985a141.213,141.213,0,0,1,11.649-31.046,155.729,155.729,0,0,0,54.139,47.3,154.836,154.836,0,0,0,174.1-20.518,156.043,156.043,0,0,0,24.262-26.78A141.375,141.375,0,0,1,297,310a143.046,143.046,0,0,1-2.885,28.618,141.221,141.221,0,0,1-21.367,50.776,142.414,142.414,0,0,1-62.476,51.447,141.286,141.286,0,0,1-26.655,8.274A143.046,143.046,0,0,1,155,452Z" transform="translate(-719 1131) rotate(90)" fill="#a87163" />
        <path id="Subtração_2" data-name="Subtração 2" d="M155,414a104.764,104.764,0,0,1-20.959-2.113,103.426,103.426,0,0,1-37.188-15.649,104.3,104.3,0,0,1-37.68-45.757,103.477,103.477,0,0,1-6.06-19.522A104.769,104.769,0,0,1,51,310a103.722,103.722,0,0,1,6-34.9,154.823,154.823,0,0,0,196,0,103.721,103.721,0,0,1,6,34.9,104.768,104.768,0,0,1-2.113,20.96,103.431,103.431,0,0,1-15.649,37.188,104.3,104.3,0,0,1-45.757,37.68,103.478,103.478,0,0,1-19.522,6.06A104.767,104.767,0,0,1,155,414Z" transform="translate(-718 1131) rotate(90)" fill="#524439" />
        <path id="Subtração_3" data-name="Subtração 3" d="M155,358a45.961,45.961,0,0,1-46-46,46.379,46.379,0,0,1,.819-8.689,155.952,155.952,0,0,0,90.361,0A46.375,46.375,0,0,1,201,312a45.961,45.961,0,0,1-46,46Z" transform="translate(-719 1131) rotate(90)" fill="#f7e8e4" />
    </g>
</svg>
  