<svg xmlns="http://www.w3.org/2000/svg" width="459.585" height="120.57" viewBox="0 0 459.585 120.57">
    <g id="Grupo_22" data-name="Grupo 22" transform="translate(-1041.57 -484.58)">
      <path id="Caminho_20" data-name="Caminho 20" d="M43.995,1.47C57.54,1.47,68.46-3.465,75.6-12.39L62.37-24.36c-4.62,5.565-10.29,8.61-17.325,8.61-12.075,0-20.475-8.4-20.475-21s8.4-21,20.475-21c7.035,0,12.705,3.045,17.325,8.61L75.6-61.11c-7.14-8.925-18.06-13.86-31.605-13.86C20.685-74.97,3.57-59.115,3.57-36.75S20.685,1.47,43.995,1.47ZM107.94-57.855c-8.925,0-18.585,2.31-25.1,6.615l6.72,13.545C93.45-40.74,99.54-42.63,105-42.63c7.875,0,11.76,3.255,12.075,9.03h-11.34C88.1-33.6,80.43-27.09,80.43-16.59,80.43-6.72,87.99.945,101.64.945c8.295,0,13.965-2.835,16.8-8.295V0h18.585V-31.6C137.025-49.665,126.42-57.855,107.94-57.855Zm-.735,46.2c-4.725,0-7.455-2.415-7.455-5.775,0-3.465,2.31-5.775,8.715-5.775h8.61v4.935C115.5-13.755,111.615-11.655,107.205-11.655Zm61.425-38.43V-56.91H149.625V0h19.95V-26.145c0-9.975,5.565-14.07,13.65-14.07a36.331,36.331,0,0,1,4.515.315V-57.855C179.34-57.855,172.725-55.23,168.63-50.085ZM223.965.945c18.8,0,32.13-12.285,32.13-29.505,0-17.115-13.335-29.295-32.13-29.295-18.585,0-32.13,12.18-32.13,29.295C191.835-11.34,205.38.945,223.965.945Zm0-15.855c-6.72,0-11.97-4.935-11.97-13.65,0-8.61,5.25-13.44,11.97-13.44,6.825,0,11.97,4.83,11.97,13.44C235.935-19.845,230.79-14.91,223.965-14.91ZM265.335,0h19.95V-77.91h-19.95Zm42.84-63.21c7.35,0,12.18-4.62,12.18-10.92,0-5.985-4.83-10.29-12.18-10.29S296-79.8,296-73.815,300.825-63.21,308.175-63.21ZM298.2,0h19.95V-56.91H298.2Zm69.93-57.855c-7.14,0-13.545,2.415-18.06,7.14V-56.91H331.065V0h19.95V-27.51c0-9.45,4.935-13.44,11.34-13.44,5.775,0,9.345,3.465,9.345,11.655V0h19.95V-32.55C391.65-50.19,381.465-57.855,368.13-57.855Zm95.025,29.5c0-18.8-13.65-29.5-30.45-29.5-17.955,0-31.29,12.18-31.29,29.295C401.415-11.55,414.54.945,434.8.945,445.62.945,453.6-2.2,459.06-8.3l-10.5-10.92a18.235,18.235,0,0,1-13.125,4.935c-7.35,0-12.285-3.36-13.965-9.135h41.37C462.945-24.99,463.155-26.88,463.155-28.35ZM432.81-43.68a11.245,11.245,0,0,1,11.655,9.765h-23.31C422.31-39.9,426.615-43.68,432.81-43.68Z" transform="translate(1038 569)" fill="#a87163"/>
      <path id="Caminho_21" data-name="Caminho 21" d="M18.84-21,10.35-1.98,1.86-21H.18L9.54,0h1.53l9.36-21ZM25.35-1.38V-9.99H36.54v-1.35H25.35v-8.28H37.86V-21H23.82V0H38.31V-1.38ZM60.21,0,54.96-7.35a6.444,6.444,0,0,0,4.92-6.57c0-4.44-3.18-7.08-8.46-7.08H43.89V0h1.53V-6.87h6a14.824,14.824,0,0,0,2.04-.15L58.47,0ZM45.42-8.22v-11.4h6c4.5,0,6.9,2.07,6.9,5.7,0,3.6-2.4,5.7-6.9,5.7ZM71.01.15c5.19,0,7.56-2.58,7.56-5.55,0-7.62-13.11-3.9-13.11-10.2,0-2.31,1.83-4.2,5.91-4.2a10.378,10.378,0,0,1,5.76,1.77l.57-1.23a11.266,11.266,0,0,0-6.33-1.89c-5.16,0-7.44,2.61-7.44,5.58,0,7.74,13.11,3.96,13.11,10.26,0,2.28-1.86,4.11-6.06,4.11a9.986,9.986,0,0,1-6.93-2.64L63.36-2.7C64.89-1.02,67.89.15,71.01.15ZM83.76,0h1.53V-21H83.76ZM108.3,0h1.65l-9.66-21H98.76L89.1,0h1.65l2.67-5.91H105.6ZM94.02-7.2l5.49-12.12L105.03-7.2ZM129.33-21V-2.76L115.05-21h-1.29V0h1.53V-18.24L129.6,0h1.26V-21Zm8.85,21h1.53V-21h-1.53Z" transform="translate(1361 605)" fill="#a87163"/>
    </g>
  </svg>
  