<svg xmlns="http://www.w3.org/2000/svg" width="626.871" height="600.89" viewBox="0 0 626.871 600.89">
    <g id="Grupo_7" data-name="Grupo 7" transform="translate(0 153.161)">
      <path id="Caminho_1" data-name="Caminho 1" d="M828.327-44.172l-.3.368A2.131,2.131,0,0,0,828.327-44.172Z" transform="translate(-424.551 -55.881)" fill="#a87163"/>
      <path id="Caminho_2" data-name="Caminho 2" d="M789.507,110.559a2.762,2.762,0,0,0,.055.631A3.544,3.544,0,0,0,789.507,110.559Z" transform="translate(-404.798 -135.216)" fill="#a87163"/>
      <path id="Caminho_3" data-name="Caminho 3" d="M562.244-31.858a3.5,3.5,0,0,0-.421-.025C561.964-31.873,562.1-31.867,562.244-31.858Z" transform="translate(-288.06 -62.182)" fill="#a87163"/>
      <path id="Caminho_4" data-name="Caminho 4" d="M499.185,209.62Z" transform="translate(-255.944 -185.995)" fill="#a87163"/>
      <path id="Caminho_5" data-name="Caminho 5" d="M706.333,299.394c-.116-.021-.062.009,0,0Z" transform="translate(-362.119 -232.032)" fill="#a87163"/>
      <path id="Caminho_6" data-name="Caminho 6" d="M499.146,209.582c0-.019-.006-.038-.008-.058-.011.027-.018.055-.03.082Z" transform="translate(-255.905 -185.957)" fill="#a87163"/>
      <path id="Caminho_7" data-name="Caminho 7" d="M556.3-62.24c-.38.075-.761.162-1.142.274C555.536-62.055,555.916-62.147,556.3-62.24Z" transform="translate(-284.641 -46.617)" fill="#a87163"/>
      <path id="Caminho_8" data-name="Caminho 8" d="M661.171,147.219c-.443.217-.888.434-1.331.657C660.3,147.675,660.741,147.452,661.171,147.219Z" transform="translate(-338.316 -154.012)" fill="#a87163"/>
      <path id="Caminho_9" data-name="Caminho 9" d="M659.282,156.918c-.332.129-.663.263-.989.408C658.633,157.2,658.957,157.06,659.282,156.918Z" transform="translate(-337.523 -158.985)" fill="#a87163"/>
      <path id="Caminho_10" data-name="Caminho 10" d="M706.405,299.3c.033.006.075.015.139.031l.142-.13c-.085.031-.17.063-.255.094A.111.111,0,0,1,706.405,299.3Z" transform="translate(-362.191 -231.936)" fill="#a87163"/>
      <path id="Caminho_11" data-name="Caminho 11" d="M777.88,283.248c-2.245.158-4.16-.806-6.432-2,.618,5.564.109,10.513-2.781,14.988a12.668,12.668,0,0,0,3.98-12.836C774.456,283.861,776.215,284.394,777.88,283.248Z" transform="translate(-394.114 -222.733)" fill="#a87163"/>
      <path id="Caminho_12" data-name="Caminho 12" d="M686.867,51.289c1.4,1.586,3.1,1.481,4.492,2.087A14.8,14.8,0,0,0,686.867,51.289Z" transform="translate(-352.173 -104.827)" fill="#a87163"/>
      <path id="Caminho_13" data-name="Caminho 13" d="M567.393,599.126a2.343,2.343,0,0,0,1.4-3.45,15.64,15.64,0,0,1-.822-1.909c-.33-1.149-1.163-1.363-2.164-1.3a3.466,3.466,0,1,0,1.586,6.658Zm-2.007-4.53a1.471,1.471,0,1,1,1.233,2.668,1.47,1.47,0,1,1-1.233-2.668Z" transform="translate(-288.451 -382.297)" fill="#a87163"/>
      <path id="Caminho_14" data-name="Caminho 14" d="M617.763,368.858c-5.281-3.085-10.711-5.912-15.812-9.3a71.884,71.884,0,0,1-12.735-10.6,159.044,159.044,0,0,0-12.482-12.524,120.1,120.1,0,0,0-13.3-9.647c-8.294-5.313-17.364-9.044-26.312-13.04-9.655-4.312-19.745-7.333-29.841-10.361a241.957,241.957,0,0,1-28.4-10.49c-5.59-2.473-11.446-4.3-16.927-7.026-3.1-1.54-6.321-2.879-8.985-5.153-3.078-2.629-6.027-5.411-9.156-7.976a35.685,35.685,0,0,0-9.518-5.149c-.151-.061-.3-.126-.45-.187a5.673,5.673,0,0,0-.664-4.613c-1.949-2.659-5.36-4.608-6.335-6.557s-.487-15.106.975-21.927,4.873-24.364.975-27.287-29.724,6.822-29.724,6.822,0-19.491-.975-26.313c-.06-.424-.134-.859-.219-1.3h0s11.914,2.277,16.787.815,5.847-3.411,3.9-8.771c-1.577-4.336-8.824-18.161-11.536-23.287a3.878,3.878,0,0,0,.329-1.564,3.943,3.943,0,0,0-.083-.8l3.435-1.149.237.488,2.746-1.462a10.873,10.873,0,0,0-2.436-5.36l-.85.51a7.886,7.886,0,0,0-1.586-2.459l-2.436,1.462v.975l.384.792-2.522,1.3a3.894,3.894,0,0,0-6.007.661,2.716,2.716,0,0,0-1.664-1.012,1.414,1.414,0,0,0-1.711-.937,1.121,1.121,0,0,0-.361.221,2.517,2.517,0,0,0-2.881-1.141,2.1,2.1,0,0,0-.7.434,2.2,2.2,0,0,1-1.615-.618,2.165,2.165,0,0,0-1.539.152,2.322,2.322,0,0,0-.41-.152,1.919,1.919,0,0,0-2.279.918,1.811,1.811,0,0,0-2.033,1.188,1.661,1.661,0,0,0-1.666-.392,1.73,1.73,0,0,0-1.065,1.71,1.644,1.644,0,0,0-1.172,1.13,1.522,1.522,0,0,0,.085.992,1.491,1.491,0,0,0-.284.065,1.872,1.872,0,0,0-.931,2.46,2.3,2.3,0,0,0,.255.494,2.428,2.428,0,0,0-1.3,2.009,1.483,1.483,0,0,0-.406,1.49,2.8,2.8,0,0,0-.556,2.159,1.441,1.441,0,0,0-.913,1.72,1.673,1.673,0,0,0,.513.927,3.126,3.126,0,0,0,.069,1.92,3.317,3.317,0,0,0,.362.719,3.17,3.17,0,0,0,.125,1.717,147.268,147.268,0,0,0,3.75,3.325,3.333,3.333,0,0,0,.121.469l-2.8,1.906s-1.366-.2-3.009-.35l-.06-2.406H371.3l.451,2.255c-1.482-.034-2.763.073-3.064.5-.8,1.142-2.747,8.939-2.747,8.939s-4.873,0-4.873.975-4.385,18.516-3.9,20.953,3.9,11.207,4.385,11.695,3.624,0,3.624,0-.213,2.924,1.248,3.411,11.083,1.945,11.4.007c-.116,1.177-.243,2.21-.381,3.041-.959,5.775,1.414,9.956,4.782,12.088a7.177,7.177,0,0,0,1,.508,171.4,171.4,0,0,0-22.219-2.056c-1.912-2.372-3.774-4.729-5.6-7.108-25.541-33.2-41.641-70.375-47.508-111.937-3.529-25-4-50.1-3.083-75.263.7-19.208,2.118-38.371,3.971-57.5.056-.58.11-1.161.207-2.183.5.937.711,1.417,1,1.843a6.081,6.081,0,0,0,5.728,2.905,6.423,6.423,0,0,0,5.342-3.608c.536-.948-.129-2.712,1.249-2.815,1.014-.076,1.745,1.358,2.656,2.054a.66.66,0,0,1,.126.118c.889,1.161,1.411.378,2.128-.287.931-.862.464-1.323-.265-1.863a4.778,4.778,0,0,1-.594-.627,1.9,1.9,0,0,1,1.025.321c1.339.7,1.607,1.371.382,2.614-2.218,2.251-4.241,4.694-6.345,7.057l.353.359,7.816-8.09.3.28-6.076,7.265.356.3c1.97-2.013,3.93-4.037,5.92-6.031.315-.315.648-1.093,1.18-.57.427.419-.266.783-.568,1.027-3.384,2.736-5.2,6.987-9.032,9.3,4.449-2.077,6.938-6.5,10.9-9.153-3.684,4.46-6.774,9.5-12.32,12.061,5.964-1.916,9.115-7.252,13.717-10.835-3.262,4.368-6.151,9.083-11.116,11.774,2.522-1.232,5-2.458,6.838-4.714,1.452-1.785,3.142-3.378,4.75-5.034.268-.276.54-.967,1.043-.429.375.4-.2.714-.445.97-3.331,3.41-6.131,7.394-10.466,9.728-.126.068-.469.166-.239.474,5.179-2.01,8.026-6.818,12.236-9.99-4.75,4.77-8.29,10.876-14.813,13.722,2.322-.9,4.748-1.5,6.554-3.447,2.71-2.915,5.542-5.717,8.342-8.547.262-.265.437-.9,1.192-.418C331.884-7.6,325.9-.817,318.268,4.276c8.511-3.9,14.148-11.141,20.409-17.655l.392.4L330.434-2.657a43.363,43.363,0,0,0,4.883-4.623l4.465-4.695.418.418c-4.917,5.92-9.26,12.369-15.847,16.77,2.865-1.927,5.974-3.489,8.307-6.068,2.554-2.824,5.021-5.726,7.555-8.567.29-.326.512-1.125,1.143-.689.608.418.1.908-.206,1.318-.173.231-.355.456-.52.692a105.776,105.776,0,0,1-17.139,18.937,4.219,4.219,0,0,0-1.455,1.666c1.434-1.13,2.811-2.079,4.029-3.2,3.051-2.807,6.535-5.148,9.153-8.423,2.232-2.794,4.441-5.607,6.69-8.387.228-.282.4-1.04,1-.546.508.416.037.821-.228,1.182-.171.232-.352.457-.527.686A237.846,237.846,0,0,1,326.383,12.64c-.489.519-.944,1.071-1.414,1.608,7.424-5.93,13.383-13.161,19.014-20.7C338.137,4.28,330,13.214,321.626,21.973c2.113-1.67,3.995-3.544,5.986-5.295A67.418,67.418,0,0,0,341.695.409a35.491,35.491,0,0,1,2.726-3.789c.287-.367.423-1.313,1.2-.794.752.5.418,1.141-.037,1.771q-3.3,4.556-6.521,9.162a2.682,2.682,0,0,0-.865,1.959c1.561-2.046,2.938-3.85,4.316-5.654l4.122-5.395.49.4c-6.938,10.257-13.878,20.513-22.353,29.636,10.168-7.455,16.14-18.272,22.9-28.435,1.205.817.677,1.509.167,2.271Q338.7,15.2,329.591,28.88c-.308.462-.823.873-.759,1.492,8.439-8.318,13.924-18.743,20.381-28.47,1.268.762.609,1.414.169,2.079C344.3,11.671,338.941,19.2,335.136,27.657a2.958,2.958,0,0,0-.526,1.523c6.372-7.583,11.167-16.117,16.551-24.394.555,1.192.571,1.2-.037,2.147-6.767,10.524-13.392,21.147-21.436,30.782-.491.589-.932,1.22-1.4,1.832,2.308-1.9,4.3-4.072,6.452-6.061a45.262,45.262,0,0,0,9.133-11.843c1.895-3.493,4.074-6.832,6.154-10.222.8-1.31,1.686-2.572,2.583-3.933.827.884,1.191,1.571.758,2.723a80.855,80.855,0,0,1-18.727,29.581c-.34.336-.849.576-.924,1.433a63.78,63.78,0,0,0,12.508-13.237A98.164,98.164,0,0,0,355.05,12c1.14.954.7,1.793.35,2.653a247.641,247.641,0,0,1-16.237,32.636,4.543,4.543,0,0,0-1.03,2.432,150.913,150.913,0,0,0,18.664-34.4,2.093,2.093,0,0,1,.624,2.743,151.675,151.675,0,0,1-12.4,25.646c-.433.714-.841,1.444-1.26,2.166a186.237,186.237,0,0,0,15.6-25.788c1.019,1.2,1.215,2.137.334,3.473-2.412,3.656-4.645,7.43-6.924,11.171a3.244,3.244,0,0,0-.787,1.863c2.921-3.935,5.657-7.646,8.432-11.327.29-.385.449-1.3,1.167-.892.577.328.32,1.015.021,1.555-.167.3-.276.633-.416.949a95.891,95.891,0,0,1-18.714,27.652c-.411.429-.79.888-1.184,1.334,9.49-7.566,16.482-17.084,21.98-28.047.622,1.414,1.754,2.306.91,3.952-5.422,10.577-12.233,20.08-21.229,27.933-.392.342-.74.735-1.108,1.1A2.709,2.709,0,0,0,343.2,60.4a38.108,38.108,0,0,0,16.431-16.557,95.2,95.2,0,0,1,6.184-10.406,4.7,4.7,0,0,1,.8,5.145A58.166,58.166,0,0,1,350,62.266c-1.936,1.672-3.791,3.431-5.508,5,.4-.146.8-.3,1.193-.466,5.962-2.565,10.5-6.82,14.222-12.029a111.185,111.185,0,0,0,7.815-13.443,4.292,4.292,0,0,1,1.085-1.7c.479,1.016,1.221,1.829.811,2.983-3.484,9.805-7.352,19.418-13.813,27.742a3.306,3.306,0,0,0-.981,1.707c9.627-6.709,12.578-17.138,16.159-27.266a2.46,2.46,0,0,1,.621,2.574c-2.2,9.608-5.368,18.841-10.518,27.314-.239.393-.43.815-.644,1.224,7.773-6.909,10.216-16.433,12.988-25.862,2.319,8.1.925,15.736-2.913,23.088a21.622,21.622,0,0,0,4.294-8.043,31.279,31.279,0,0,0,1.062-9.432c.356.688.51.989.667,1.288s.311.583.467.874a2.006,2.006,0,0,0-.134-1c-.594-1.755-.59-1.785,1.149-1.424,2.481.515,4.951,1.079,7.425,1.622-2.976-1.637-6-3.143-9.1-4.48-1.407-.607-1.876-1.6-2.111-3.17l11.313,4.334c-3.768-2.419-7.664-4.523-11.572-6.607-.765-.408-1.482-.8-1.345-2.016l11.993,4.977a4.2,4.2,0,0,0-1.477-1.14q-5.3-2.739-10.608-5.459c-.752-.385-1.528-.726-1.326-1.787,6.221,2.064,11.641,6.038,18.292,6.617a3.033,3.033,0,0,0-1.037-.612c-6.056-2.125-11.661-5.243-17.47-7.913-.592-.272-1.239-.5-1.149-1.519,3.268,1.351,6.438,2.562,9.521,3.965a28.612,28.612,0,0,0,9.9,2.3,3.14,3.14,0,0,0-1.182-.647c-6.3-1.939-12.256-4.716-18.294-7.3-.834-.358-1.53-.72-1.435-1.965,6.378,2.772,12.507,5.993,19.545,6.49a89.632,89.632,0,0,1-20.951-9.318c6.384,2.252,12.525,5.19,19.426,5.68a97.078,97.078,0,0,1-20.584-8.418c5.273,1.641,10.317,3.994,15.878,4.635a6.745,6.745,0,0,0-1.524-.712c-4.807-1.625-9.52-3.494-14.186-5.484-1.017-.434-1.017-.435-1.325-1.639a61.325,61.325,0,0,0,19.679,5.878c-7.217-2.372-14.5-4.579-21.092-8.507a154.414,154.414,0,0,0,21.442,6.248c-7.554-2.871-15.351-5.1-22.621-8.725,7.176,2.033,14.112,4.86,21.569,5.783a10.749,10.749,0,0,0-1.746-.7c-6.611-2.039-13.167-4.237-19.609-6.763-.692-.271-1.609-.367-1.545-1.67,7.032,2.353,13.932,4.913,21.28,5.79a141.559,141.559,0,0,1-22.464-7.9c7.389,1.7,14.52,4.472,22.2,4.809A181.828,181.828,0,0,1,358.424,13c7.475,1.408,14.81,3.443,22.359,4.427L357.437,11.2l.107-.429c7.745,1.407,15.4,3.313,23.205,4.385-8.061-2.447-16.322-4.091-24.526-5.957l.16-.657,19.879,4.2c-6.639-2.562-13.612-3.793-20.457-5.563l16.389,3.166.062-.3L354.85,5.888l.07-.287,18.406,3.464A192.081,192.081,0,0,0,353.88,4.538l.11-.5,20.691,3.705.044-.239-22.191-5.15q.065-.295.131-.59c3.587.71,7.166,1.472,10.765,2.117,3.532.632,6.991,1.682,10.808,2.082-1.038-1-2.776-.274-3.057-1.929A21.531,21.531,0,0,1,370.79.861c-.025-1.356,1.217-.406,1.832-.92-1.744.209-2.35-.613-2.326-2.186a12.109,12.109,0,0,0-.407-2.2c-1.276-7.213-4.07-13.922-6.836-20.641a3.782,3.782,0,0,1-.54-2.006c5.723,10.2,9.7,20.912,13.275,32.024-.217-7.627-1.352-14.768-5.111-21.272,5,5.887,5.676,13.282,7.435,20.3q-.306-3.2-.613-6.4a21.487,21.487,0,0,1,1.723,3.581c.27.626.272,1.487,1.165,1.68-.206,1.7.922,3.059,1.3,4.63-.09-1.367-.18-2.735-.289-4.385l.925,1.506c-.875-7.539-3.549-14.314-5.789-21.2C381.33-8.469,383.18.6,384.968,9.72l-.241-4.4.228-.015.963,2.941.321-.087L384.76.46,385.036.4l3.133,12.72.28-.067-.786-6.125.249-.061,1.743,5.435.26-.085q-1.074-5.428-2.147-10.856a6.316,6.316,0,0,1,.969,2.058c1.405,3.812,1.636,8.076,4.65,11.822L389.095-2.007c3.152,5.648,4.281,12.052,7.393,17.682-2.6-9.335-4.869-18.76-7.954-27.961C392.72-3.867,395,5.27,398.87,13.839l-.723-3.5.262-.052,1.941,6.807c-.075-3.119-1.06-6.093-1.08-9.195,1.384,1.337,1.186,3.168,1.71,4.76.058.178-.216.555.293.533,1.1-.049,1.105-.034,1.3.9.336,1.633.668,3.268,1.011,4.9.014.066.132.111.211.174l.308-.8.665,1.012c-.831-3.715-2.123-7.28-2.1-11.118a127.165,127.165,0,0,1,3.4,12.26c.366-1.54-.3-3.072.206-4.638l3.31,11.414.167-.03-1.371-10.276.227-.045,2.411,8.762a65.451,65.451,0,0,0-.8-8.159,42.654,42.654,0,0,1,3.336,12.57c.1-.359.2-.718.321-1.168a17.584,17.584,0,0,1,1.29,4.467q.153-5.784.305-11.569c.971,3.773.278,7.62,1.111,11.426q.128-2.813.255-5.625c1.068,3.059,1.131,6.351,2.765,9.412-.009-1.111-.016-2.068-.023-3.025h.154l.508,1.658.216-.049-.987-9.954a111.855,111.855,0,0,1,2.6,14.55c-.131-3.033-.146-6.047-.045-9.553a59.056,59.056,0,0,1,1.536,10.956c.814-1.533-.293-3.2.418-4.853l.534,1.5c-1.01-6.619-.9-13.283-1.274-19.92C424.221,27,426.049,35.5,427.021,44.2a2.279,2.279,0,0,0,.541-2.143c-.708-4.845-1.357-9.7-2.023-14.551q-.667-4.862-1.329-9.726l.279-.038,4.59,26.44c-.012-5.821-1.225-11.478-2.226-17.158,2.235,6.694,4.2,13.445,6.089,20.24l-1.526-8.278.242-.069,2.336,4.5.268-.115-3.182-8.627c2.223,4.523,5.6,8.312,8.076,12.682l-3.408-7.812.255-.106,1.609,2.664a1,1,0,0,0-.058-.883c-2.887-5.727-5.717-11.484-8.69-17.167a139.365,139.365,0,0,0-8.3-13.58c-8.993-13.254-19.862-24.551-33.955-32.458a3.117,3.117,0,0,1-1.85-2.045c-.019.658-.419.641-1.422.32-3.5-1.12-5.465-3.2-5.387-7.016a26.641,26.641,0,0,1-.169-2.7l1.129,4.979c-.236-7.56-.413-15.127-4.4-21.954,5.67,6.488,5.624,14.572,6.759,22.39q-.008-3.807-.016-7.615a60.471,60.471,0,0,1,3.477,11.015,46.993,46.993,0,0,0,.248-6.073c.85,1.165.532,2.522,1.208,3.479a117.124,117.124,0,0,0-4.737-26.278c5.5,9.577,5.588,20.3,6.849,30.778q.059-3.723.117-7.447l.263-.021q.528,2.566,1.055,5.132l.34-.061q-.709-6.656-1.418-13.311c.759.464.532,1.292.633,1.961.752,4.993,1.459,9.993,2.18,14.991l.307-.02-.259-8.594.245-.016q.776,3.614,1.553,7.227c-.62-7.221-.523-14.533-3.442-21.377-1.262-2.96-1.444-6.229-2.033-9.374,3.864,9.844,5.438,20.254,7.6,30.66.511-.732-.169-1.4.324-2.042l1.219,4.466.281-.054c-1.214-7.929-2.428-15.859-3.717-24.278,2.8,7.445,4.1,14.848,6.934,21.772-2.061-11.061-3.553-22.224-6.467-33.125a5.1,5.1,0,0,1,.8,1.488c3.319,8.476,4.931,17.452,7.637,26.108.225.721.408,1.455.611,2.183l.257-.059q-.383-3.291-.767-6.582l.277-.037q.86,4.635,1.722,9.271l.358-.041c-.357-4.055-.713-8.109-1.091-12.4,2.255,2.3,1.354,5.081,2.067,7.5-.049-1.131.927-2.028.594-3.233,1.237,2.934.891,6.1,1.581,9.139.522-.6-.027-1.388.536-2.065l.768,2.3c-.607-4.806-1.848-9.519-1.411-14.414,1.375,6.194,2.759,12.384,2.82,18.775L410.729-30.1a146.147,146.147,0,0,1,3.277,15.455q-.322-7.428-.645-14.857l.283-.026q.838,4.706,1.675,9.411l.355-.053q-.138-4.728-.275-9.456a48.486,48.486,0,0,1,2.469,15.278l.3-3.214a10.193,10.193,0,0,1,.7,4.259c-.023.294-.412.9.306.9.926,0,.3-.709.27-.972a19.459,19.459,0,0,1,.109-3.1c.065-1.279.817-2.469.736-3.671-.185-2.744.565-5.4.568-8.123.518,6.188-.712,12.336-.452,18.268.67-3.424.754-7.172,1.3-11.241,1.3,4.2.4,8.089.479,11.97q.205-2.177.411-4.353l.308-.013.57,3.472.252-.037.371-3.926.172-.013.341,3.313.245-.022q-.05-7.463-.1-14.927l.446-.012c.307,5.887.864,11.756.935,17.673.207-3.757.46-7.484,1-11.187a117.937,117.937,0,0,1,.708,12.693c.573-2.066,0-4.288.855-6.6l.759,5.884c-1.083-10.537.011-21.051.206-31.57a7.434,7.434,0,0,1,.089,1.32q.675,14.939,1.349,29.878c.021.488,0,1.006.611.936.691-.08.373-.733.357-1.105-.328-7.949-.693-15.9-1.034-23.846-.093-2.169-.132-4.341-.2-6.511l.3-.006q1.261,16.954,2.522,33.908c.446-8.536-.313-17.01-1.079-25.493.757,3.819,1.454,7.626,2.3,11.417,1.14,5.1,1.677,10.337,2.473,15.514l.3-.036q-.557-6.162-1.113-12.323l.254-.054,2.328,4.918.322-.113-2.96-10.314.4-.17c1.014,3.441,3.341,6.1,5.124,9.081.935,1.563,1.755,3.2,2.626,4.8l.278-.152-4.087-10.721.288-.114,2.547,4.514c.373-.6.012-.934-.135-1.268q-2.538-5.781-5.119-11.543c-.188-.42-.321-1.044-.649-1.188-1.235-.544-1.247-1.616-1.448-2.678a6.62,6.62,0,0,0-.693-1.755,85.31,85.31,0,0,0-7.963-12.76c-4.952-6.447-10.419-12.36-17.766-16.181-10.4-5.41-21.375-6.451-32.8-4.343-2.25.415-4.4,1.37-6.733,1.314a2.416,2.416,0,0,1-3.3.319c.2.187.516.424.363.677-.3.5-.831.491-1.351.345a1.042,1.042,0,0,1-1.607.287c-.015.984-.724.811-1.335.8-.689.9-1.348.717-2.172.094-1.112-.84-2.044-1.978-3.491-2.317.928,1.317,2.544,1.869,3.592,3.135-1.149.916-1.924.955-3.036-.2-2.589-2.694-5.875-4.57-8.77-6.915-.506-.41-1.17-.668-1.531-1.551,3.483,1.743,6.406,4.083,9.792,5.594-1.039-1.483-2.739-2.132-4.088-3.226-.928-.753-1.937-1.405-2.82-2.266,2.607,1.244,5.344,2.209,7.706,3.936a15.228,15.228,0,0,0,3.025,2.223c-2.127-2.7-5.1-4.324-7.847-6.266,2.57,1.192,5.365,1.92,7.436,4.056a5.079,5.079,0,0,0,2.3,1.741c-1.14-1.594-2.774-2.7-4.149-4.257,1.734.229,2.444,1.943,3.916,2.366-1.876-2.455-4.626-3.728-7.159-5.293a25,25,0,0,1-3.505-2.454c4.511,2.475,9.255,4.536,13.322,7.77a6.947,6.947,0,0,0-2.778-2.734,54.805,54.805,0,0,1-5.982-4.47c.477.27.957.533,1.428.812q4.663,2.761,9.323,5.529a47.177,47.177,0,0,0-5.362-4.061c-2.226-1.647-4.486-3.247-6.731-4.868l.2-.293,12.2,7.253c-3.393-2.641-6.756-5.26-10.626-8.055,4.745,1.5,7.715,5.144,11.948,6.489-3.822-2.144-6.917-5.242-10.541-7.632l.233-.375,14.756,7.963.191-.333-13.333-8.538.319-.509L375.855-70l.209-.324-10.288-7.39c2.5.467,4.535,1.933,6.953,2.532l-7.25-4.588c4.56.635,7.329,4.428,11.334,6.066l-7.294-5.733.164-.212,9.733,5.513.254-.415c-.785-.563-1.545-1.166-2.36-1.682-2.581-1.635-5.189-3.229-7.771-4.862a11.041,11.041,0,0,1-1.481-1.173c-.228-.207-.611-.477-.278-.85.293-.328.619-.143.907.092a15.753,15.753,0,0,0,4.877,2.56,15.794,15.794,0,0,1,4.981,2.7c.357.3.679.814,1.383.6a21.172,21.172,0,0,0-5.175-3.776c-1.509-.707-2.959-1.541-4.406-2.369-.292-.167-.783-.457-.453-.942a.826.826,0,0,1,1.1-.2,10.758,10.758,0,0,1,1.075.554c3.761,2.239,7.952,3.747,11.309,6.689-2.979-3.6-7.337-5.4-10.676-8.572,4.452.905,7.489,4.271,11.138,6.6-2.616-2.818-5.614-5.207-8.326-7.961,3.522,2.534,7.83,3.721,10.974,6.838a7.771,7.771,0,0,0-3.005-3.269c-1.688-1.1-3.389-2.189-5.033-3.356-.364-.259-1.2-.657-.506-1.315a1.111,1.111,0,0,1,1.693.03c.6.62,1.241,1.206,1.888,1.779,2.8,2.483,6.123,4.19,9.254,6.19-2.119-2.557-4.9-4.28-7.552-6.158a6.371,6.371,0,0,1-2.035-2.076c-.174-.317-.7-.613-.281-1.029.469-.47.861-.059,1.156.287,3.243,3.8,7.778,5.676,12,8.018.287.159.572.586,1.1.172-2.39-1.69-4.758-3.325-7.079-5.023a23.076,23.076,0,0,1-4.231-3.263c-.276-.323-1.148-.66-.431-1.28.657-.569,1.081-.08,1.517.482,1.736,2.238,4.263,3.263,6.746,4.353a36.1,36.1,0,0,0-3.357-2.717c-2.136-1.589-2.379-1.92-2.288-3.209,3.262,3.513,7.486,5.6,11.3,8.279-2.7-3.242-6.982-4.674-9.578-8.4l11.34,6.875a90.366,90.366,0,0,0-7.725-5.872,13.111,13.111,0,0,1-1.566-1.348c-.221-.217-.53-.554-.077-.847.268-.173.518-.061.747.187,2.722,2.966,6.707,3.7,10,5.676-2.932-1.987-5.732-4.125-8.564-6.22l.233-.378,5.582,2.839.178-.3-4.279-3.027c1.657-1.162,2.454.787,3.748.7-.278-.659-1.093-.9-1.124-1.852,2.2.673,3.77,2.276,5.991,3.046-1.2-1.424-2.778-2.091-3.972-3.751,2.163.562,3.621,1.683,5.548,2.645-1.037-1.365-2.416-1.825-2.99-3.139,1.682,1.671,3.941,2.288,5.987,3.773a3.19,3.19,0,0,0-1.639-2.246c-.679-.521-1.511-.915-1.765-2.107l3.456,1.472.1-.235-1.676-1.55.2-.252,3.553,2.466.47-.439-2.24-1.982a1.971,1.971,0,0,1,1.758.913c.581.828,1.371.451,1.907.293,1.015-.3-.309-.947-.126-1.294.823-.223,1.5,2.272,2.274-.219a2.056,2.056,0,0,1,2.612-1.219c.459.207.611-.431.819-.865.354-.74-.6-.534-.56-.971-.672,0-1.641-.272-1.96.065-.835.884-2.016.434-3.1,1.5l.692-1.325c-.915.117-1.249,1.135-2.127,1.114-.376-.5.4-1.009-.226-1.655-1.627,2.144-4.308,1.762-6.732,2.862l.98-1.213c-1.119,1.131-2.907.2-4.1,1.03l.977-1.415-.225-.167L397.4-97.489c.407-.764-.2-1.574.494-2.472-1.607.826-2.243,2.2-3.468,2.952.912-1.116,1.062-2.531,1.83-3.9-1.965,1.222-3.017,3.063-4.729,4.275l1.5-2.183c-2,1.387-2.924,4.011-5.809,4.228l1.529-2.5c-1.469.9-1.861,2.742-3.509,3.511-.134-.71.632-.95.426-1.557-.955.5-1.092,1.874-2.649,2.217l2.307-3.587c-1.547.972-2.349,2.5-3.479,4-.018-1.247,1.173-1.843,1.142-3.009a9.064,9.064,0,0,0-1.68,2.3c-.935,1.417-.924,1.424-2.141,1.65l2.582-3.817c-1.8,1.26-2.672,3.28-4.4,4.583l1.731-2.8-.222-.136L375.884-89.9l-.431-.311c1.846-1.4,1.169-4.035,2.993-5.464-2.763,2.218-4.186,5.63-6.894,7.846l-.374-.313,2.182-3.57c-1.784,1.17-2.365,3.226-4,4.524l3.333-6.265c-2.324,2.1-3.024,5.307-5.065,7.577l-.371-.24,3.768-6.94a31.275,31.275,0,0,0-7.374,9.321,15.794,15.794,0,0,1,.8-5.292l-3.374,6.838-.392-.184c.67-1.556,1.352-3.107,2-4.674.078-.191.408-.828-.084-.613-.411.18-.741-.866-1.036.069a17.023,17.023,0,0,1-1.171,2.494c-.745,1.47-1.18,3.1-2.476,4.3l3.6-7.92-.181-.074-1.36,1.75c.026-.274.052-.549.122-1.291-1.457,2.365-2.7,4.317-2.925,6.727a7.626,7.626,0,0,1-2.49,3.068l1.472-3.918-.3-.128-2.333,4.955-.415-.185c.839-1.916,1.665-3.839,2.526-5.745.267-.591.362-.876-.507-.817-.326.022-1.405-.353-.743-.851.832-.625.469-1.245.656-1.722-2.323,1.228-4.179-.486-6.183-1.047l3.489.33c-.938-.564-2.047-.576-3.03-1.359.919-.426,1.662.051,2.411-.136-.145-.425-1.093-.117-.822-.97l3.353.619.058-.189-2.151-1c1.836.184,3.551-1.085,5.416-.028-.572-1.32-2.1-.82-2.762-2a11.04,11.04,0,0,0,3.138-.411l-.74-.793c1.125.515,1.827.037,2.678-.614.978-.749.971-2.1,2.079-2.782.457-.28-.256-.461-.622-.552-1.112-.275-1.317.925-2.074,1.23a74.255,74.255,0,0,0-8.135,4.152c-.084.046-.134.154-.2.233-1.1-1.243-1.019.307-1.5.639-.208-.324,0-.979-.427-1-.469-.025-.6.55-.77.949-.2.455-.3,1.156-.645,1.306-1.223.537-.932,2.728-2.787,2.477-.019,1.184-1.388,1.085-1.764,2.2-.133-.995.5-1.589.22-2.357l-2.091,3.985c-.493-.442.184-1.039-.305-1.433l-.785,2.316-1.193-1.874c-.84,1.687-.972,3.456-1.915,4.954-.531-.628.278-1.321-.3-1.91a8.381,8.381,0,0,1-.923,2.85c-.207-1.378.685-2.6.343-4.373-.41,2.087-.735,3.744-1.06,5.4l-.294-.04c.124-1.31.247-2.62.38-4.021-1.787,1.456-.444,3.472-1.2,5.077-.484-.487.151-1.124-.441-1.708-.073.771-.1,1.4-.206,2.023-.059.329.153.944-.512.867-.576-.067-.386-.581-.421-.966-.088-.972,1.328-1.546.689-2.66-.31.591-1.1.785-1.285,1.527l-.134-1.117a5.159,5.159,0,0,0-.358,1.355c-.057.3-.1.509-.554.3-.275-.128-.991.035-1.068.236-1.063,2.776-1.044,2.784-3.016,4.44.091-.963.171-1.808.286-3.028-.723,1.547-.126,3.054-.994,4.08a33.352,33.352,0,0,0-4.326,5.871c-.152.288-.034.9-1,.684,3.048-7.7,7.129-14.824,10.851-22.131-1.953,2.9-3.713,5.908-5.488,8.905-1.748,2.952-3.364,5.979-4.971,9.012a319.583,319.583,0,0,1,22.3-50.413c-8.64,13.832-16.4,28.085-21.406,43.7.548-6.236,1.532-12.433,1.359-18.714q-.257-9.39-1.377-18.736A144.91,144.91,0,0,1,320.5-79.7c.3-6.643-.553-13.626-1.186-20.628-.134,6.659.069,13.327-.714,19.956-.53-4.675-1.115-9.323-1.926-13.94.11,3.745.373,7.475.522,11.209a85.618,85.618,0,0,1-.348,11.239c-.336,3.66-.69,7.319-1.035,10.979a116.688,116.688,0,0,0-1.734-13.563c-.313,2.755.67,5.481.074,8.231.844,1.752.479,3.208-1.326,4.428l1.119-3.994c-.834.5-.652,1.755-1.876,2.455l1.677-4.2c-1.033.809-1.047,1.955-1.971,2.522l1.427-4.985-.285-.081L311.4-66.3l-.494-.13c-.366-2.327,1.9-4.1,1.726-6.446-1.03,1.348-1.114,3.2-2.572,4.282a23.4,23.4,0,0,0,2.632-8.937A35.019,35.019,0,0,0,311.363-74a16.761,16.761,0,0,1-1.624,3.427c-.612,1.016-1.194,2.05-1.79,3.077,1.027-3.32,2.86-6.271,3.324-9.738-1.273,2.653-2.26,5.45-4.233,7.785,1.921-4.343,4.072-8.6,4.426-13.422a40.737,40.737,0,0,1-4.933,11.242c1.017-3.832,3.388-7.276,3.158-11.44a44.538,44.538,0,0,1-3.746,9.151c1.41-4.71,3.789-9.166,3.583-14.271a38.251,38.251,0,0,1-4.219,12.221c.611-3.176,2.468-6.043,2.216-9.413a38.869,38.869,0,0,1-3.027,7.223c1.4-4.769,3.917-9.357,2.164-14.376a40.658,40.658,0,0,1-3.405,9.493l1.544-8.789-.211-.032-1.947,7.444c.515-4.186,1.992-8.222,1.361-12.525-.27,1.243-.334,2.511-.524,3.76a25.9,25.9,0,0,1-.767,3.547c-.343,1.146-.35,2.411-1.3,3.407.373-4.854,2.736-9.5,1.6-14.677-.4,4.148-.744,8.124-2.537,11.791,1.013-5.443,2.13-10.871,1.581-16.458-.659,4.992-.694,10.075-2.285,14.925.118-3.39,1-6.71.846-10.577-.515,3.18-.957,5.906-1.4,8.632.144-4.136.858-8.218.672-12.363-.184,1.256-.294,2.519-.424,3.779-.125,1.205-.248,2.411-.415,3.611-.162,1.166-.379,2.323-.572,3.484l-.491-.1.815-8.62-.238-.027q-.529,3.445-1.057,6.89l-.488-.034c-.195-4.765,1.362-9.493.461-14.291l-.361,3.816c-.23-1.375.038-2.745-.627-4.472-.374,3.958-.708,7.495-1.042,11.032l-.334-.03.832-8.8-.347-.044-1.085,6.863-.276-.035q.452-4.784.9-9.567l-.54-.058-.786,8.324-.687-.078.975-10.317-.474-.042-.794,8.4a11.068,11.068,0,0,1-.053-3.258c.07-1.036.1-2.075.126-3.113a7.319,7.319,0,0,0-.46-3.012,44.236,44.236,0,0,1-.647,8.45c-.526-2.972.021-6-.707-9.23-.439,2.506.216,4.817-.681,7.012a46.222,46.222,0,0,1,.033-5.542c.141-3.213.043-3.955-.712-5.572q-.107,4.51-.214,9.021l-.487.016c-.885-3.686.659-7.593-.809-11.618a55.771,55.771,0,0,1-.366,9.337c-.692-2.469-.013-5.127-1.179-7.521-.033,1.905.314,3.811-.159,5.732-1.557-3.643-1.127-7.713-2.576-11.383q.473,4.334.945,8.669l-.24.036q-.479-3.052-.957-6.1l-.317.032q.17,2.18.34,4.362c-1.156-2.632-.879-5.5-1.728-8.184q.186,3.171.372,6.342l-.43.046c-.6-2.747-.328-5.655-1.445-8.325.164,2.125.327,4.25.515,6.694-1.478-1.206-1.057-2.555-1.2-3.758a12.525,12.525,0,0,0-.589-4.047c-.211,1.912.262,3.53-.293,5.543-.324-3.112-.352-5.842-1.376-8.384a19.613,19.613,0,0,0,.156,2.24c.076.746.173,1.491.2,2.239.026.676-.029,1.356-.048,2.034-1.172-1.738-.844-3.709-1.605-5.479l.194,3.766c-1.373-1.8-.881-3.995-1.746-5.894l.134,4.015c-1-1.516-.707-3.288-1.346-5.1-.177,1.38.292,2.559-.129,4.179-.982-2.636-.826-5.145-1.94-7.285a30.641,30.641,0,0,1,.432,5.039c-.853-2.681-.963-5.537-2.148-8.133-1.582,1.646.084,3.576-.525,5.538-.729-1.924-.58-3.87-1.6-5.485-.532.613.236,1.251-.143,1.91l-.7-1.559c-.167.92.351,1.6-.095,2.354-.71-1.383-.535-3-1.546-4.23l.384,2.9-.171.031-2.413-5.153c.083,1.387.692,2.28.411,3.575l-1.6-4.152c-.12,1.2.554,1.916.209,2.739-.815-.211-.228-1.814-1.661-1.575-.256.042-.76-1.407-1.161-2.192-.6.327.263.9-.391,1.266l-1.585-3.949c-.248,1.175.5,1.8.252,2.555-.7-.311-.858-1.691-1.02-1.48-.816,1.06-.779.013-.942-.3-.307-.6-.536-1.235-.817-1.9-.5.51.319,1.057-.216,1.513l-2.7-3.82c-.485.344.459.931-.213,1.212l-.872-1.417c-.447,1.28-.762-.328-1.155-.125-.172,1.441-.012,1.312.882,2.422.463.574,1.714,1.529.237,2.521.624.3.923-.634,1.444-.179-.161.413-.983.542-.662,1.053.581.924,1.573.261,2.446.347-1.416,1.047-1.6,1.671.414,1.6-.3.331-.821.451-.964,1,1.226-.173,2.363-.967,3.9-.4l-3.694,1.353.036.184,5.33-.476c-.9.949-2.2.5-3.22,1.234,1.658.343,3.333,0,4.978.725a7.379,7.379,0,0,1-2.245.813c-.759.206-2.182-.383-2.154.72.023.9,1.418.408,2.191.538a24.2,24.2,0,0,0,4.288-.165c-1.514.955-3.373.513-5.117,1.46a25.15,25.15,0,0,1,6.991.256l.023.453-5.586,1.01c2.482.555,5.01-.112,7.845.657-3.142,1.682-6.335-.034-9.082,1.285,3.051-.287,6.094.164,9.134.029a1.283,1.283,0,0,1,1.414,1.2l-6.661.566.016.132,8,.756c-4.171,1-8.414,1.09-12.593,1.671,3.252.017,6.463.372,9.682.563a9.422,9.422,0,0,0,3.259-.233c.524-.154,1.319-.927,1.537.1.159.747-.855.79-1.411.854-2.4.275-4.821.425-7.224.7-1.8.207-3.648.077-5.386.744,5.15-.19,10.315.34,15.453-.4-4.466,2.516-9.734,1.276-14.378,3.018,4.911-.5,9.9-.074,14.716-1.468.371-.107.858-.486,1.073-.018.274.6-.4.712-.775.9a8.758,8.758,0,0,1-3.012.708c-1.8.2-3.6.418-5.407.629,3.226.474,6.459.983,9.536-.37,1.129-.5,1.418.109,1.9,1.109-5.858,1.592-11.9,1.223-17.725,2.35,5.788.04,11.614,1.185,17.319-.709a8.745,8.745,0,0,1,1.006-.252c.45-.092.846.038.96.5.108.44-.336.517-.614.7-1.476.952-3.162.971-4.826,1.121-3.368.3-6.77.424-9.977,1.708,5.091-.407,10.265.1,15.244-1.45,1.036-.324,2.184-.321,2.307.919.112,1.122-1.2.955-1.927,1.019-2.354.208-4.723.23-7.08.4a9.167,9.167,0,0,0-5.807,2.68c2.867-1.934,6.059-2.048,9.321-1.791a30.541,30.541,0,0,0,5.521-.237c.557-.057,1.512-.435,1.606.415.075.679-.868.466-1.381.566-.622.12-1.261.151-1.881.273q-5.207,1.025-10.409,2.077a1.307,1.307,0,0,0,1.069.218c4.341-.536,8.649-1.453,13.07-1.065.788.069,1.514.073,1.632,1.083-5.525,1.051-11.4-.16-16.821,2.453.215.18.275.258.3.248,5.686-2.153,11.532-.672,17.309-.767.057,0,.115.006.173.011a.9.9,0,0,1,.91.874c.018.521-.527.53-.9.588-2.138.333-4.256-.1-6.379-.226a23.366,23.366,0,0,0-6.948.98c4.856-.958,9.649.9,14.484.474.445-.039,1.026-.19,1.16.421.154.707-.565.625-.929.723a9.163,9.163,0,0,1-2.045.288c-3.746.133-7.494.224-11.24.354a5.829,5.829,0,0,0-2.927.657,5.035,5.035,0,0,0,1.4.168c5.248.035,10.5.185,15.741-.176.544-.038,1.264-.31,1.48.777-6.221-.759-12.054,1.1-18.02,1.723,2.409-.006,4.8-.27,7.193-.4,3.238-.176,6.507-1.231,10.018.4-5.583.54-10.962.027-16.211,1.15a50.137,50.137,0,0,1,14.709.74l-15.5,1.485.026.36,20.846-.517q.007.344.014.688l-21.1.883-.005.2,22.164.72c0,.177,0,.355,0,.532-5.318.22-10.507,1.775-15.9,1.293,5.419,1.36,10.935-.625,16.355.52-6.365.718-12.7,1.78-19.178,1.36a1.279,1.279,0,0,1,1.156.839c-.02-.639.433-.554.826-.526,6.1.435,12.195.063,18.292.049.1,0,.193.081.332.142-.134.123-.246.317-.374.329q-9,.868-18.009,1.7c-.154.014-.319-.107-.479-.165l-2.34.777c.385.942,1.166,1.7.7,3.244a27.511,27.511,0,0,0-5.138-7.907,50.844,50.844,0,0,1,2.787,7.982c-1.676-2.443-2.206-5.429-3.83-7.881.241,1.992,1.431,3.681,1.537,5.706a18.956,18.956,0,0,1-1.527-2.858,6.678,6.678,0,0,0-1.8-2.5,23.056,23.056,0,0,1,1.976,5.075c-2.518-2.49-3.546-6-5.931-9,.062,1.346,1.067,1.941,1.039,3.025l-1.065-.822,2.148,4.125c-1.484-1-1.784-2.768-3.071-3.887l1.194,2.722c-1.684-1.855-2.431-4.271-4.246-6.013l2.736,5.367c-2.316-1.086-2.15-3.437-3.527-4.831-.206.82.628,1.322.277,2.111a20.915,20.915,0,0,0-2.767-4.232c.455,1.542,1.494,2.838,1.907,4.669-1.127-.5-1.165-1.473-1.781-1.972-.533.147.179.7-.254.817-.4.108-.62-.233-.79-.53-.686-1.2-1.357-2.4-2.032-3.6l-.266.138,1.372,3.08c-3.921-1.745-4.6-6.567-8.421-7.755.7,1.267.6,3.1,1.676,4.521-1.26-1.066-1.777-2.683-3.048-3.687-1.2.822,0,1.643.123,2.779l-2.779-3.632-.226.188,1.214,2.189-2.789-2.123.513,1.6c-.786-.58-1.016-1.188-2.068-.923a3.388,3.388,0,0,1-2.844-1.555.62.62,0,0,0-.523-.251c-.632.2-.614.216-.913-.077-.469-.459-.8-1.08-1.451-1.324-.278.292.286.443-.1.928-.894,1.123-1.129-.366-1.676-.222a2.661,2.661,0,0,1-3.107-1.3c-.172-.25-.546-.363-.827-.538-.349,1.416-1.417.128-2.055.554.318.384.184,1,.74,1.28,1.956.973,3.346,2.682,5.076,3.953.473.347.75.618,1.309.053a2.029,2.029,0,0,1,1.983-.812l-2.32,2.182c1.862-.535,2.988-1.7,4.933-2.053l-2.681,1.867c1.646-.028,2.8-.958,4.205-.878-.933,1.779-3.431,1.672-3.99,3.691,1.986-1.33,4.577-1.15,6.248-3.116l.322.617-3.719,2.28a49.26,49.26,0,0,1,5.625-1.72l.193.428-4.3,2.659c2.253-.3,4.133-1.8,6.8-2.044-1.815,2.077-4.243,2.026-5.941,3.38,1.37-.372,2.672-.94,4.023-1.337,1.258-.369,2.377-1.691,4.277-.624L241.389-97l.128.289,6.553-2.221a70.231,70.231,0,0,1-9.061,5.341c3.526-1.423,7.524-1.619,10.586-4.193a.55.55,0,0,1,.767-.067c.4.339.079.65-.175.836A14.733,14.733,0,0,1,248.3-95.8c-2.946,1.524-5.909,3.015-8.866,4.519a92.556,92.556,0,0,0,12.845-5.253c-3.04,3.556-7.854,4.422-11.224,7.49,4.362-2.24,9-3.9,13.069-6.747-1.364,2.626-4.385,3.012-6.291,4.9,2.519-.791,5.115-1.414,7.03-3.4.531-.55,1.046-.833,1.564-.208.617.746-.32.945-.664,1.254a8.321,8.321,0,0,1-1.723,1.132c-3.426,1.788-6.866,3.549-10.3,5.326a3.826,3.826,0,0,0-1.889,1.514,13.141,13.141,0,0,1,3.6-1.627c4.252-1.61,8.658-2.906,12.162-6.03.338-.3.769-.651,1.19-.13.393.486-.17.7-.386.98-1.421,1.814-3.651,2.346-5.523,3.446-.945.554-1.935,1.032-2.868,1.606-.877.539-1.7,1.16-2.552,1.744,4.131-1.7,8.4-3.04,11.886-5.892.778-.637,1.808-1.12,2.336-.053.458.925-.783,1.2-1.424,1.532-1.745.892-3.547,1.669-5.312,2.523a10.443,10.443,0,0,0-4.419,4.292c1.5-1.448,2.9-2.99,4.959-3.679a38.789,38.789,0,0,0,7.138-3.068c.405-.234.985-.783,1.322-.1.261.532-.5.644-.834.834a87.4,87.4,0,0,0-9.1,6.131,9.246,9.246,0,0,0,2.107-1,44.97,44.97,0,0,1,8.807-4.384c.674-.229,1.308-.53,1.86.436q-3.34,1.628-6.665,3.248c-4.517,2.2-5.247,2.719-5.964,4.2,2.218-1.654,11.225-5.684,13.813-6.179a2.008,2.008,0,0,1,.339-.063c.429-.006.881.11.983.537.086.361-.328.615-.623.728-1.881.719-3.772,1.418-5.673,2.082a21.635,21.635,0,0,0-5.751,3.528c4.125-3.214,9.462-2.955,14.069-5.394a2.985,2.985,0,0,1-2.087,2.126c-3.005,1.33-6.018,2.644-9.007,4.011-.914.418-1.758.986-2.634,1.485l.194.331,10.667-4.223.12.247-9.2,5.549c3.178-1.036,5.969-2.867,8.913-4.377a7.957,7.957,0,0,1,4.678-1.011c-2.551,1.147-5.108,2.28-7.649,3.448-.656.3-1.462.4-1.82,1.179a41.707,41.707,0,0,1,8.911-2.64c-.685.378-1.374.749-2.055,1.134-3.105,1.754-6.442,3.086-9.4,5.112,0-.006,0-.011,0-.018-.988.24-1.928.346-2.408-.851-.651.071-1.391.292-1.358-.8-.741.459-1.319-.06-1.926-.335-8.774-3.971-17.789-7.044-27.567-7-7,.032-13.633,1.438-19.357,5.814a45.388,45.388,0,0,0-10.9,11.954,91.869,91.869,0,0,0-7.382,15.652c-.951,2.419-1.856,4.856-2.781,7.285l.265.112,2.751-4.948.282.132L187.36-35.223c2.162-2.125,2.316-5.081,4.569-6.992,1.436-1.218,1.808-3.69,2.657-5.6l.223.09q-1,5.16-2,10.321l.342.082,2.136-5.032c.137,4.82.26,9.1.382,13.373.121-9.372,1.659-18.632,1.995-27.977.246,8.8.326,17.59,1.959,26.29q-.76-16.361-1.521-32.722a2.3,2.3,0,0,1,.482,1.332c.655,8.215,1.246,16.437,1.988,24.644.194,2.145-.243,4.492,1.289,6.38-.938-10.146-.977-20.33-2.1-30.442,1.668,10.229,3.825,20.392,3.931,30.822.017-2.285.033-4.569.051-7.093,1.262,2.291.571,4.834,1.919,6.831a64.539,64.539,0,0,1-.983-12.026c.984,3.7,1.694,7.441,2.415,11.2-.672-5.788-.826-11.591-1.072-17.4,1.158,4.769,1.221,9.7,2.083,14.692.516-1.193-.133-2.269.291-3.525l.919,4.629c1.371-3.371.235-6.764.578-10.592,1.2,3.288,1.271,6.315,2.518,9.4-.019-2.372-1.109-4.36-.3-6.6,1.049,2.313.912,4.721,1.888,6.852a11.654,11.654,0,0,1,.246-5.085c.27,1.175.455,1.976.639,2.778a41.756,41.756,0,0,1,.765-14.319l.959,11.019c.663-3.465.558-6.98,1.124-10.472l1.209,14.579a108.593,108.593,0,0,1,1.535-13.949l1.036,8.478c-.315-5.04.573-9.96,1.008-14.908,1.092,5.044.3,10.069-.127,15.449.773-1.3.3-2.6,1.24-3.614.122,1.191.227,2.21.331,3.228.591-3.289-.3-6.658.867-9.9q-.147,1.558-.294,3.117l.174.01.354-1.248c.56.459.307,1.145.777,1.6a15.287,15.287,0,0,1,1.063-8.479c.149,5.129.3,10.389.455,15.649l.084,0c.421-4.457.843-8.915,1.254-13.267-.016,3.552-.033,7.214-.049,10.646,2.145-9.414,2.762-19.355,6.066-28.755-1.739,10.85-1.886,21.828-2.923,32.728,2.425-7.171,2.831-14.783,4.893-21.848-.3,7.314-.631,14.795-.885,22.278-.038,1.1-.531,1.434-1.459,1.723A93.378,93.378,0,0,0,201.85-18.883c-9.7,8.159-17.953,17.636-25.525,27.744-2.005,2.677-3.96,5.391-5.907,8.11-.309.433-.847.786-.772,1.469.852-.454,1.094-1.517,2.278-2.021l-4.665,7.007.341.243c2.659-3.963,6.489-6.881,9.408-10.644L172.8,20.241l.262.17,2.959-3.879.245.149-3.221,8.647c3.092-6.673,6.318-13.251,9.818-19.713a112.339,112.339,0,0,0-5.513,17.464l8.766-24.334a2.026,2.026,0,0,1-.156,1.672c-2.083,6.473-4.155,12.949-6.26,19.416a2.189,2.189,0,0,0,.146,2.243c2.523-8.445,5.747-16.555,8.226-24.921-1.727,7.233-2.883,14.606-5.662,21.562.756-.689.72-1.806,1.533-2.56.258,1.4-.656,2.521-.29,3.8a54.82,54.82,0,0,1,3.153-9.283c-.341,2.822-.863,5.6-1.385,8.4A101.966,101.966,0,0,1,190.4,5.447l-2.93,10.472.22.065.917-2.2c.209,1.39-.472,2.462-.456,3.764l1.845-4.14.258,1.778c.448-2.9.905-5.263,2.445-7.694-.22,2.894-1.111,5.283-.748,8.16a22.759,22.759,0,0,1,1.781-7.214c.624,1.406.064,2.74-.315,4.06a2.166,2.166,0,0,0-.024,1.877,13,13,0,0,1,1.826-4.508c.347.56-.2,1.111.281,1.662a36.9,36.9,0,0,1,5.41-12.44q-1.223,3.921-2.447,7.84l.221.089L202.4-.8l.264.1q-1.512,4.8-3.024,9.6l.135.036,5.458-11.094.3.121-1.624,6c1.659-4.568,4.055-8.741,6.206-13.029a43.181,43.181,0,0,1-4.3,10.643c.54.34.883-1.464,1.338.183.681-1.709,1.286-3.314,1.969-4.886.221-.508.352-1.508,1.163-1.114.742.36.639-.061.8-.43.571-1.268.786-2.732,2.125-3.63-.534,3.192-2.1,6.069-2.791,9.222l3.205-6.569c.115,1.046-.688,1.793-.632,2.909,5.1-7.712,8.76-16.137,14.25-23.473C222.692-17.906,218.981-9.2,214.91-.663c3.9-4.948,6.206-10.878,10.167-15.828l-7.3,16.453c2.274-1.867,3.4-4.267,4.545-6.662.945-1.975,1.944-3.924,2.925-5.881.245-.489.353-1.126,1.1-1.118-1.863,3.456-2.911,7.229-4.146,10.942l2.359-4.515.268.113L223.209-1.78l.279.1,5.117-11.609.265.111-2.883,7.589.285.115,1.56-3,.248.085-1.137,4.77c3.394-8.6,6.451-17.346,12.693-24.48-3.606,6.461-7.136,12.959-9.5,20.422l1.4-2.272c.143,1.322-.688,2.244-.392,3.466a14.81,14.81,0,0,0,1.675-3.388,27.855,27.855,0,0,1,3.731-9.916,61.4,61.4,0,0,1,6.237-8.284c-1.464,2.38-2.95,4.746-4.387,7.143a82.1,82.1,0,0,0-5.4,10.95c1.492-1.436,2.024-3.561,3.668-5.249-.58,2.122-1.081,3.952-1.582,5.783,2.768-6.344,4.818-13.029,10.4-17.738A37.54,37.54,0,0,0,237.633-8.89c4.9-8.864,9.995-17.6,16.543-25.427C248.558-25.6,244-16.432,241.676-6.258l3.155-5.579c.145-1.584,1.072-2.863,1.686-4.26,1.1-2.49,2.266-4.948,3.532-7.364a4.628,4.628,0,0,1-.577,3.1C247.976-17.6,246.552-14.794,245.1-12c1.927-1.938,2.721-4.674,4.617-6.841.389,2.76-1.924,4.252-2.529,6.528,1.108-.527,1.164-1.954,2.283-2.286.432.51.2.974.191,1.417s-.249.909.429,1.407a50.7,50.7,0,0,1,6.992-11.289,62.859,62.859,0,0,1-3.8,7.689c-1.109,1.823-1.641,3.974-3.006,5.594A83.361,83.361,0,0,0,238.95,8.541c-2.246,4.745-3.725,9.772-5.621,14.644-1.038,2.667-.515,5.554-1.507,8.192l3.116-7.008c.192,1.494-.558,2.714-.581,4.492l.954-2.3.244.057c-.012,1.832-.024,3.663-.039,5.973.65-4.8.68-9.211,2.013-13.746-.106,2.87-.52,5.431.166,7.99l.4-12.93c.382,4.933.091,9.871.817,14.778q.074-7.047.148-14.093c.595,3.978,1.217,7.937.76,11.736,1.112-1.471,1.072-3.389,1.293-5.275l.6,2.3c.365-2.418-.1-4.438.485-6.394-.122,2.161.48,4.256.466,6.441.1-.24.064-.561.36-.542.077,0,.133.389.195.6a.619.619,0,0,1,.015.113c.767-1.851.532-3.723.684-5.727.7.74.546,1.518.816,2.347.275-.9-.069-1.719.469-2.689l.521,2.651a49.8,49.8,0,0,0,1.043-6.288c.161-1.429-.091-3.029.991-4.27-.571,1.625,0,3.274.009,4.928q.266-1.813.533-3.627l.346.052.167,6.033.2.019c.252-2.666.5-5.331.768-8.131.93.648.187,1.541.833,2.3.243-2.573.468-4.955.722-7.639.982,2.584-.6,4.984.729,7.721-.408-3.29,1.2-5.653,1.435-8.354l.429.064q-.115,2.87-.229,5.739l.139.011c.18-1.191.359-2.382.608-4.034.042,1,.064,1.538.091,2.157,1.823-6.055,2.27-12.316,4.3-18.228a120.616,120.616,0,0,0-1.915,16.934,85.291,85.291,0,0,1,2.393-9.817c-.346,3.667-.693,7.335-1.055,11.168,1.664-2.591,1.356-5.489,2.013-8.139l.419.063q-.273,2.888-.546,5.777l.316.035c.166-1.043.331-2.085.518-3.267.642,1.142.178,2.279.637,3.328l.74-7.827.331.03-.509,5.387.225.021c.145-.794.29-1.587.515-2.819.215,1.187.347,1.916.479,2.646.268-5.77.47-11.512,2.715-16.991a18.2,18.2,0,0,1-.577,3.795c-.185,1.25-.5,2.482-.658,3.734-.16,1.314-.148,2.649-.3,3.965-.14,1.253.814,2.2.775,3.368l1.464-6.023.2.042q.145,1.617.289,3.234c.618-3.889-.1-8.013,2.307-11.553-1.261,3.3-.913,6.744-1,10.166l.344-1.149c.108.59-.163,1.187.21,1.8,1.14-5.628,2.048-11.2,4.34-16.41a56.955,56.955,0,0,0-1.514,17.349c1.278-3.6.678-7.518,1.882-11.126.365,2.257-.669,4.374-.544,6.6l1.06-4.268c.91,1.726-.244,3.1-.171,4.654.509-.639.305-1.513,1.078-1.834.481.564.224,1.355.674,2.495.608-3.528,1-6.575,2.412-9.36q-.67,3.921-1.34,7.842c1.14-2.346,1.251-5,2.495-7.457-.2,2.082-.376,3.982-.556,5.882a27.441,27.441,0,0,1,2-5.624c.245,1.084-.335,1.953.071,3.144l2.4-6.918c.217,1.981-.71,3.416-.411,4.994l1.889-5.977.362.081q-.321,2.253-.641,4.5a45.7,45.7,0,0,1,4.97-9.358,17.776,17.776,0,0,0-2.167,7.3c.309-.638,1.1-1.012,1.127-1.946.078-3.137,2.255-5.321,3.758-7.809L289.8-21.46l.279.136,3.489-6.2a25.131,25.131,0,0,1-1.776,4.466,6.693,6.693,0,0,0-.632,4.587c.418-1.575.433-3.167,1.257-4.55s1.564-2.823,2.353-4.231c.215-.384.329-.994.906-.892.6.107.4.747.479,1.155.632,3.312,2.87,5.363,6.2,5.377,1.24.005,1.259.436,1.134,1.413-1.021,7.955-2.036,15.912-2.983,23.876-2.874,24.186-5.379,48.4-5.777,72.787a312.5,312.5,0,0,0,6.072,66.87c4.73,23.547,11.6,46.513,18.845,69.377,1.445,4.557,3.218,9.02,4.189,13.717a5.493,5.493,0,0,1,.044,2.749l-.332-.046c-6.013-.831-12.034-1.625-17.994-2.782-4.843-.94-9.488-2.631-14.2-4.042-.792-.237-1.588-.443-2.386-.624a1.42,1.42,0,0,0,.861-1,1.441,1.441,0,0,0-1.144-1.8,4.314,4.314,0,0,1-2.307-1.651,16.783,16.783,0,0,1-2.478-4.3q-6.939-15.748-13.852-31.506c-.612-1.4-1.242-2.792-1.716-4.236-.515-1.567-1.021-3.194-.269-4.837.461-1.009.356-1.819-.4-2.257a1.588,1.588,0,0,0-2.232.85,6.641,6.641,0,0,0-.614,3.937,18.62,18.62,0,0,0,1.645,5.762c2.451,5.624,4.932,11.235,7.4,16.85q3.641,8.281,7.28,16.563a23.192,23.192,0,0,0,2.23,4.1,9.475,9.475,0,0,0,3.065,3.034c-1.522-.246-3.055-.417-4.6-.535-3.345-.259-6.688-.541-10.038-.692.328-.517.653-1.036.982-1.553a1.189,1.189,0,0,0,.117-1.006c-1.187-5.285-2.4-10.566-3.4-15.89-.857-4.542-1.6-9.1-2.188-13.69a1.229,1.229,0,0,0-.811-1.109c-.3-.126-.594-.247-.89-.369a2.26,2.26,0,0,0,1.387-3.348l-.375-.854a7.526,7.526,0,0,1-.49-1.142c-.264-1.049-1.017-1.284-1.953-1.274a3.481,3.481,0,0,0-3.153,2.134,3.44,3.44,0,0,0,.048,2.78,36.117,36.117,0,0,0-7.754-1.733c-1.293-.13-1.291-.137-.711-1.31,2.251-4.561,4.468-9.138,6.446-13.827a1.537,1.537,0,0,0-.025-1.455q-3.926-7.721-7.8-15.47a1.38,1.38,0,0,0-.812-.854c-3.709-1.216-7.352-2.645-11.131-3.629-2.608-.679-5.148-1.563-7.732-2.31a1.483,1.483,0,0,0-1.171.1c-2.956,1.465-5.878,3-8.918,4.29a13.333,13.333,0,0,0-3.3,1.459c-.326.257-.549.069-.762-.187a19.124,19.124,0,0,1-2.316-3.107,9.309,9.309,0,0,1-.674-3.376q-1.473-12.047-2.866-24.1a26.868,26.868,0,0,1,.421-5.335c.507-5.925,1-11.85,1.432-17.781q.744-10.255,1.735-20.489c.471-4.822,1.029-9.639,1.119-14.489a18.231,18.231,0,0,0-1.059-7.627,16.267,16.267,0,0,0-2.559-3.991c-.39.67-.155,1.36-.339,1.983-.38-.05-.513-.355-.709-.56-3.173-3.329-6.319-6.685-9.611-9.9-.31-.3-.56-.77-1.156-.632-.2.046-.272-.235-.383-.383-.879-1.165-1.814-2.284-2.752-3.4a2.665,2.665,0,0,0-1.983-1.011c-3.351-.22-6.7-.433-10.053-.671-1.069-.076-2.132-.231-3.2-.331-.261-.024-.6-.213-.779.042-.214.3,0,.643.17.919a8.052,8.052,0,0,0,3.148,2.843c.234.125.528.156.715.44-2.206.512-4.379,1.051-6.543,1.631-2.728.732-4.46,2.639-5.936,4.833a24.65,24.65,0,0,0-2.331,5.179c-.486,1.286-.97,2.572-1.563,3.814a9.235,9.235,0,0,1-2.037,2.678,1.218,1.218,0,0,1-1.77.122c-.674-.523-1.336-1.063-2-1.6a.867.867,0,0,0-.982-.2c-3.043,1.383-6.253,1.409-9.482,1.082a25.417,25.417,0,0,1-8.523-2.14c-3.723-1.783-6.921-4.185-8.869-7.956a7.5,7.5,0,0,1-1.147-2.168c-.074-.442-.567-.5-.94-.536-6.618-.668-13.169-1.938-19.833-2.209-1.759-.072-3.519-.228-5.265-.454a1.548,1.548,0,0,0-1.773.949c-1.1,2.032-2.085,4.125-3,6.243-2.827,6.543-6.138,12.851-9.263,19.249-1.195,2.446-2.409,4.884-3.763,7.247a2.674,2.674,0,0,1-3.665,1.342,2.117,2.117,0,0,0-1.533-.033,9.927,9.927,0,0,1-2.616.311c-3.135.17-6.242.635-9.372.84-.5.033-.632.354-.821.684q-4.2,7.344-8.4,14.685c-2.046,3.551-4.081,7.11-6.2,10.617q-5.5,9.095-11.321,17.994c-.764,1.17-1.358,2.449-2.08,3.647-.3.5-.8.851-1.149,1.35a7.021,7.021,0,0,0-1.375,4.664c.171,1.824-.408,3.494-.574,5.239-.468,4.9-1.052,9.8-1.574,14.694-.228,2.135-.417,4.273-.628,6.41-.016.16-.017.388-.116.463-.628.476-.563,1.213-.768,1.854-1.5,4.681-1.265,9.516-1.3,14.327-.026,3.469.046,6.942-.309,10.4-.222,2.163-1.1,3.375-3.221,3.734a48.3,48.3,0,0,0-5.814,1.781c-4.61,1.384-9.27,2.581-13.967,3.623-1.141.253-2.187.8-3.354.953-.357.046-.282.433-.362.674-.493,1.484-.913,2.99-1.323,4.5L0,212.146.052,447.729l343.914-.328a3.268,3.268,0,0,1,.522.222H350.8a54.271,54.271,0,0,1,7.57-.4,178.6,178.6,0,0,0,29.263-2.964,109.73,109.73,0,0,1,12.645-1.475,63.374,63.374,0,0,0,22.629-6.328c7.2-3.37,14.064-7.365,21.094-11.051,2.289-1.2,4.592-2.381,6.941-3.457a27.379,27.379,0,0,1,10.108-2.083c12.711-.666,25.22-2.786,37.706-5.091,2.408-.445,4.8-.958,7.213-1.4a33.475,33.475,0,0,0,10.1-3.967c4.363-2.413,8.913-4.423,13.464-6.443a104.22,104.22,0,0,1,18.488-5.833c4.419-1.043,8.819-2.169,13.219-3.29,5.856-1.491,11.836-2.294,17.792-3.218,7.654-1.187,15.32-2.3,22.98-3.446,5.962-.893,11.921-1.8,17.807-3.132a11.815,11.815,0,0,0,7.045-3.991v-1.169C625.631,373.912,621.847,371.244,617.763,368.858Zm-214.3-196.44V162.256l3.411,11.624-3.594-.98A.92.92,0,0,0,403.464,172.418Zm-5.052-16.836c-.02.118-.04.241-.061.362-.024-.106-.053-.21-.08-.314ZM417.5,24.86c-.829-2.246-.457-4.6-.517-6.933A14.868,14.868,0,0,1,417.5,24.86Zm2.689-7.4c.4,2.175.933,4.3.481,6.5C420.247,21.806,419.569,19.676,420.185,17.459ZM418.825,9.5a6.4,6.4,0,0,1,.484,5.035A9.256,9.256,0,0,1,418.825,9.5Zm-1.9-2.369c.966,2.546.806,5.2.787,8.242A18.452,18.452,0,0,1,416.927,7.127ZM407.139.87c1.536,5.223,1.389,10.706,2.434,16.005C408.3,11.612,406.961,6.358,407.139.87Zm8.53,14.046c-1.09-3.224-.9-6.592-.991-9.934A23.157,23.157,0,0,1,415.668,14.916ZM412.4,4.2a81.9,81.9,0,0,1,1.988,16.25c-.012,1.392-.518.094-.785.115a19.817,19.817,0,0,1,.9,7.842c-1.228-2.8-1.211-5.413-1.28-8.012-.009-.342.3-.45.605-.483-1.378-4.343-1.02-8.872-1.418-13.32A13.912,13.912,0,0,1,412.4,4.2Zm-1.481-.463-.8-4.809C411.815.259,410.7,2.094,410.92,3.741Zm-1.374-1.888A125.435,125.435,0,0,1,411.616,17C410.4,12.025,409.11,7.061,409.546,1.853ZM407.9-.646l-.783-3.837C408.745-3.33,408.124-1.961,407.9-.646Zm-1.239,14.839c-1.715-4.063-1.467-8.349-1.724-12.571C405.742,5.79,406.89,9.909,406.666,14.192ZM404.919-6.685c.917,1.073.684,2.348.61,3.6A8.4,8.4,0,0,1,404.919-6.685Zm-2.826,3.873,2.045,12.094C403.137,5.3,401.685,1.4,402.094-2.812Zm.384-6.357c1.338,1.671.367,3.694.506,5.553l-.968-5.45Zm-2.251,1.523c-.268-1.193-.536-2.386-.841-3.743C400.526-10.645,400.589-10.391,400.227-7.646Zm-2.108-1.587L397.1-13.155C398.244-12.421,398.307-12.173,398.119-9.233Zm-6.8-.773a10.8,10.8,0,0,1,1.89,6.335Zm.441-1.835-2.516-6.528C391.173-17.606,391.813-15.889,391.764-11.842Zm-4.834-8.129c1.636,1.954,1.615,4.612,2.267,6.983l-2.742-6.782Zm-2.233-.713q1.636,4.779,3.295,9.55l-.372.088-4.3-10.489C384.074-21.4,384.5-21.258,384.7-20.684ZM387.53-.126a57.939,57.939,0,0,1-5-13.9C384.3-9.421,386.369-4.934,387.53-.126Zm-3.577-2.924a80.8,80.8,0,0,1-4.092-11.7C381.53-10.959,383.466-7.264,383.953-3.049ZM426.2-27.143a30.133,30.133,0,0,1,.163-9.556A25.228,25.228,0,0,1,426.2-27.143ZM425.82-44.85c.838,1.995.458,3.951-.088,5.905A11.1,11.1,0,0,1,425.82-44.85Zm-1.97-2.6c.724,2.054.675,6.242-.007,9.733C423.177-39.737,423.158-43.748,423.85-47.446Zm-1,14.132c.828,3.337.16,6.687-.109,10.044C421.933-26.611,422.578-29.942,422.852-33.314ZM421.6-49.523a43.735,43.735,0,0,1,.129,14.775C420.721-39.922,421.483-44.723,421.6-49.523Zm-2.312.573c.226,3.655.435,7.312.683,10.965.25,3.686-.307,7.343-.416,11.008C417.776-34.283,419.2-41.624,419.284-48.95Zm-.76,20.983c1.206,3.353.792,6.726.513,10.094C417.941-21.2,418.218-24.6,418.524-27.967ZM417.79-53.74c.986,1.95-.06,4.052-.183,6.086q-.216-3.02-.431-6.04ZM416.333-48.3c.447,6.051.95,12.063.838,18.174C416.037-33.147,415.476-44.447,416.333-48.3Zm-1.5-7.632c1.121,1.554.012,3.284-.063,4.938l-.5-4.841Zm-1.13,5.923c1.151,7.277.481,14.65,1.189,21.943C413.92-35.354,412.9-42.636,413.705-50.007Zm-1.589-7.551c.838,1.5.366,3.047.238,4.58A10.06,10.06,0,0,1,412.116-57.558Zm-.969,8.461c.5,6.224,1.357,12.433.76,18.919C410.156-36.53,411.156-42.832,411.147-49.1Zm-1.583-9.97c.543.019.637.529.61,1.044-.112,2.119-.2,4.24-.292,6.36l-.253.1c-.169-2.162-.358-4.322-.487-6.486C409.121-58.4,408.81-59.093,409.564-59.067Zm-.973,9.229.963,13.64C408.864-40.719,407.62-45.2,408.591-49.838Zm-1.813-10.551a.654.654,0,0,1,.693.79c-.1,1.179-.22,2.356-.331,3.535l-.218.02c-.148-1.168-.31-2.334-.432-3.5C406.458-59.852,406.318-60.347,406.778-60.389Zm-.721,9.864a14.8,14.8,0,0,1,.39,4.721C405.853-47.334,406.111-48.939,406.057-50.525Zm-1.6-10.744c.435-.04.717.287.671.78q-.142,1.514-.286,3.027l-.231,0c-.153-.995-.321-1.987-.449-2.985C404.123-60.75,404-61.226,404.457-61.269Zm-7.127,7.033c1.962,3.526,1.456,7.573,2.484,11.3A71.755,71.755,0,0,1,397.33-54.235Zm4.776-7.748c.463-.085.734.189.722.694-.024,1-.037,2.009-.059,3.321a10.646,10.646,0,0,1-.918-3.186C401.769-61.45,401.629-61.895,402.105-61.983Zm-2.7-.627a.5.5,0,0,1,.66.548,10.281,10.281,0,0,1-.086,3.174c-.3-1.206-.53-2.118-.754-3.032C399.157-62.182,399.015-62.527,399.4-62.61Zm-1.446,1.082c.044,1.892.263,3.78.143,5.734l-2.232-7.313C397.413-63.444,397.924-62.9,397.955-61.528Zm-3.621-1.1c.517,2.524,1.09,5.036,1.642,7.553l-.332.168-2.776-8.474C393.77-63.689,394.165-63.454,394.334-62.628Zm-4.188-1.017a.743.743,0,0,1,1.02.619c.256,1.059.545,2.11.817,3.166q1.238,4.8,2.474,9.6l-.309.089q-2.139-6.322-4.277-12.646C389.757-63.162,389.665-63.526,390.146-63.645Zm-1.273,24.067a1.3,1.3,0,0,1-.222,1.108,120.111,120.111,0,0,1-3.622-14.459C386.815-48.618,388.44-44.266,388.873-39.578ZM384.033-63.3c.7,1.075.643,2.323.891,3.571-.163-.056-.229-.058-.241-.084a9.961,9.961,0,0,1-1.066-3.34A.852.852,0,0,1,384.033-63.3Zm-.182,33.523c-1.029-8.01-3.586-15.642-5.961-23.321C381.655-45.806,384.726-38.329,383.851-29.78ZM367.729-89.043a10.181,10.181,0,0,1-2.185,4.1A9.6,9.6,0,0,1,367.729-89.043ZM324.736-34.62c-.509-.6.479-.883.865-1.195,1.842-1.484,3.746-2.889,5.588-4.373.7-.563,1.158-.69,1.819.111,1.613,1.958,3.329,3.832,5,5.743.342.391.764.821.471,1.366-.263.489-.83.265-1.268.277-3.457.1-6.915.181-11.017.286C325.558-32.54,325.4-33.841,324.736-34.62Zm3.871-12.738c1.093.281,1.687,1.344,2.734,1.563.023.345.573.646.2.954-.4.331-.9.152-1.34-.093C330.419-46.2,328.843-46.278,328.607-47.358Zm1.723,22.889a35.418,35.418,0,0,0-3.505-2.2c-.359-.224-.936-.288-.723-.959a1.088,1.088,0,0,1,.98-.822c.966-.144,1.927-.336,2.881-.549a.915.915,0,0,1,1.046.381c1.295,1.736,2.6,3.466,4.122,5.5C333.094-23.17,331.639-23.422,330.33-24.469Zm2.386-4.885,5,6.608C336.287-22.938,333.754-26.2,332.716-29.355Zm2.229.567,4.844,6.315C338.456-22.732,335.715-26.252,334.945-28.787Zm6.713,6.718c-1.78-1.378-2.551-3.519-3.62-5.435l3.969,5.171Zm.29-11.005c-.184.433-.83.229-1.233.291-.39-.01-.683-.027-.855-.455-1.065-2.647-3.1-4.668-4.589-7.042-.213-.341-.855-.724-.313-1.143.51-.395.783.261,1.059.569q2.709,3.022,5.382,6.076A1.667,1.667,0,0,1,341.947-33.074Zm1.5.225c-.291.011-.575-.015-.683-.369-1.158-3.786-4.191-6.309-6.344-9.425-.161-.233-.308-.476-.461-.715a48.482,48.482,0,0,1,7.157,6.994c.734.839.585,1.944.776,2.942A.43.43,0,0,1,343.445-32.85Zm.319-4.714c-1.716-2.437-3.484-4.837-5.081-7.367,3.108,3.975,7.737,6.744,9.555,11.993-1.908.476-2.789-.069-2.9-1.8C345.257-35.891,344.384-36.684,343.764-37.564Zm-4.271-24.684.255-.429a75.02,75.02,0,0,1,11.192,6.6c-2.215,1.537-2.217,1.54-4.277.348-2.439-1.411-4.883-2.815-7.306-4.253-.456-.27-1.092-.376-1.3-1.229,1.765-.068,3.085.835,4.437,1.6a29.818,29.818,0,0,0,4.3,2.2Zm4.6-1.5a7.223,7.223,0,0,1-1.572-1.334c3.734,1.354,7.043,3.523,10.491,5.416-2.437-2.217-5.4-3.686-8.017-5.641-.421-.314-1.452-.428-.9-1.308.61-.978,1.159-.106,1.68.24,3.572,2.375,6.85,5.174,10.565,7.343-.237,1.466-1.093.765-1.826.5.5,1.683-.737,1.187-1.545,1.228-.27.769-.883,1.253-1.57.815a79.07,79.07,0,0,1-10.345-7.374c4.086,1.645,7.515,4.5,11.522,6.282C350.021-60.011,346.983-61.775,344.1-63.747Zm2.287-15.3a.648.648,0,0,1,.6.978c-.332.555-.31,1.59-1.031,1.6-.867.01-.623-.688-.336-1.083C345.729-78.231,345.371-79.055,346.383-79.043ZM358.7-6.011c-.079-.371.22-.468.512-.508,1.117-.155,1.015.781,1.461,1.565C359.578-4.965,358.888-5.107,358.7-6.011Zm2.543,3.068c-.743-.044-1.527.081-1.88-.787a.437.437,0,0,1,.459-.573C360.61-4.264,361.3-4.049,361.24-2.942Zm-3.261-5.383c-.084-.391-.066-.747.418-.695,1.189.128.942,1.219,1.322,1.912C358.385-6.577,358.172-7.423,357.979-8.325Zm-2.809-19.3c2.62,3.547,4.1,7.668,5.953,11.6A55.21,55.21,0,0,1,355.17-27.624Zm-7.424-2.6c1.78,1.8,2.633,4.17,3.769,6.365A21.087,21.087,0,0,1,347.746-30.229Zm1.466,5.978-.326.26-4.036-5.993.455-.291Q347.258-27.263,349.212-24.251Zm1.132-9.044c-.3-1.674-.649-3.338-1.057-5.4,1.706,1.764,2.04,3.748,2.863,5.479.175.368.157.7-.352.7C351.194-32.52,350.509-32.359,350.344-33.295Zm.745-19.429.671-.343,4.059,7.572-.382.2C353.866-47.712,351.918-49.932,351.089-52.723Zm3.681,20.512c-.506-.021-1.084,0-1.254-.659a21,21,0,0,1-1.109-4.985c1.273,1.5,1.865,3.35,2.714,5.061C355.267-32.5,355.165-32.194,354.77-32.211Zm-1.306-11.762-.252.215c-1.676-2.181-3.357-4.357-5.021-6.547-.211-.277-.694-.6-.141-.976.478-.325.747.086.96.412C350.5-48.577,351.981-46.273,353.464-43.973Zm3.025,23.3-.388.237c-1.555-2.541-3.323-4.961-4.135-7.926Zm-.466,11.644c1.212-.008,1.019,1.134,1.682,1.783-1.169.111-1.843-.139-2-1.162C355.657-8.7,355.592-9.026,356.024-9.029Zm.72-25.6.347-.091c.354.7.725,1.392,1.052,2.1.115.249.5.626-.02.794a.649.649,0,0,1-.894-.528C357.075-33.113,356.906-33.871,356.743-34.631Zm3.38,2.7c-.3-1.551-.531-3.116-.789-4.674l.374-.112c.608,1.463,1.231,2.919,1.811,4.393.142.361.6.924-.167,1.08A.966.966,0,0,1,360.123-31.93Zm-4.178-19.976a60.02,60.02,0,0,1,6.924,11.625C361.414-41.656,356.287-50.211,355.945-51.907Zm-8.027-2.581a1.715,1.715,0,0,1-2.639.445c-2.469-1.581-5.016-3.043-7.517-4.576a1.8,1.8,0,0,1-1.206-1.489Zm-.57,7.878-2.5-2.916A12.345,12.345,0,0,1,347.348-46.609Zm-2.535,36a9.8,9.8,0,0,1,4.9,1.11A12.415,12.415,0,0,1,344.814-10.605Zm1.026,1.958a34.164,34.164,0,0,1,9.95,2.4C352.417-6.861,348.962-7.149,345.84-8.647Zm1.752,2.093c3.033.617,6.191.73,8.975,2.213A33.631,33.631,0,0,1,347.592-6.553Zm1.063,2.272.09-.425L359.2-2.516l-.1.475ZM370.108,2.7a1.478,1.478,0,0,1,.387,1.589c-.249.459-.817.093-1.23-.038A163.107,163.107,0,0,0,352.632.394c-.521-.107-1.158-.028-1.408-.68.307-.438.664-.213.971-.167,5.455.835,10.906,1.7,16.365,2.5A2.714,2.714,0,0,1,370.108,2.7Zm-4.515-15.631a6.705,6.705,0,0,1,1.03,3.921C365.524-10.066,365.33-10.8,365.593-12.931Zm2.368,8.539a9.134,9.134,0,0,1-1.419-4.319C367.633-7.49,367.62-5.879,367.961-4.392Zm-2.7-4.443c.584,1.444,1.034,2.542,1.47,3.647.125.317.273.707-.2.854a.735.735,0,0,1-.863-.408A5.5,5.5,0,0,1,365.265-8.835Zm.194,6.715a.93.93,0,0,1,1.042.943c.05.578-.438.342-.727.345-.562.007-1.057-.178-1.112-.8C364.6-2.29,365.171-2.054,365.46-2.12Zm2.258,2.9q-.128.327-.256.654L349.953-1.89l.133-.724c3.06.518,6.151.9,9.17,1.594C362.055-.375,365.166-.785,367.717.777Zm-5.14-5.961c.006.42-.229.538-.552.488-.9-.141-.932-.938-1.037-1.573-.073-.437.4-.514.748-.424C362.541-6.484,362.3-5.665,362.578-5.184Zm1.881-25.44c-.6.021-1.294-.026-1.471-.862-.344-1.628-.705-3.253-1.057-4.879q-.323-1.489-.642-2.978c1.906,2.342,2.4,5.218,3.413,7.878C364.819-31.159,364.9-30.639,364.459-30.623Zm1.6.092c-1-1.731-.844-3.676-1.272-6.019C366.39-34.426,366.2-32.474,366.057-30.532Zm1.108-4.965c-.547-1.428-.2-2.88-.044-4.344C367.849-38.41,367.376-36.955,367.165-35.5Zm1.346-.4,2.072,6.76C368.183-29.539,367.408-32.074,368.512-35.894Zm.6-6.716a92.443,92.443,0,0,1,2.3,13.643C370.36-33.471,368.362-37.79,369.11-42.609ZM380.385,2.743a1.87,1.87,0,0,1-.259-.494,140.109,140.109,0,0,0-6.273-18.242,1.8,1.8,0,0,1-.141-.8C377.019-10.645,380.232-4.473,380.385,2.743ZM367.209-58.081c5.352,10.028,8.411,20.684,11.063,31.909-1.67-.637-2.944-1.148-4.237-1.6a.972.972,0,0,1-.7-1.043c-.211-9.754-2.867-18.975-6.128-28.063A1.1,1.1,0,0,1,367.209-58.081Zm-.008,8.418a24.947,24.947,0,0,1-3.335-8.521C365.831-55.673,366.221-52.554,367.2-49.663Zm-2.348,1.3L360.7-56.9C363.617-54.808,363.858-51.4,364.854-48.36Zm.858,8.017c-3.449-4.712-5.187-10.22-7.4-15.506C361.668-51.1,363.536-45.648,365.712-40.344Zm-9.566-21.581a5.785,5.785,0,0,1,1.365,1.031c.354.433,1.32.763.826,1.45a1.463,1.463,0,0,1-1.981.392c-.941-1.379-2.42-2.157-3.653-3.208-1.881-1.6-3.828-3.132-5.716-4.729-.4-.334-1.049-.51-1.031-1.249.694-.154,1.062.386,1.513.675Q351.823-64.767,356.146-61.925Zm-6.277-14.983a7.084,7.084,0,0,1,1.32-3.9A7.551,7.551,0,0,1,349.869-76.908Zm.847.8a10.148,10.148,0,0,1,1.785-4.454A11.76,11.76,0,0,1,350.716-76.105Zm-3.59-9.6,4.35.86c.278.055.611.081.535.486a.479.479,0,0,1-.639.4C349.932-84.439,348.352-84.523,347.126-85.705Zm6.054-.315c.323.07.762-.1.643.45-.065.3-.245.776-.654.645-2.042-.651-4.268-.778-6.053-2.1C349.074-86.163,351.2-86.45,353.181-86.02Zm-3.021,2.642a9.73,9.73,0,0,1-5.092-1.858C346.706-84.45,348.608-84.413,350.159-83.378Zm-6.459-.867c.21-.376.564-.289.887-.083a10.114,10.114,0,0,0,4.4,1.276c.346.041.932-.1.84.54-.1.679-.636.484-1.229.383-1.377-.441-2.9-.911-4.41-1.433C343.938-83.646,343.443-83.785,343.7-84.245Zm2.523,2.5c-1.859.343-2.75-.028-3.728-1.518Zm-5.352.114a.674.674,0,0,1,.883-.312c1.333.533,2.658,1.087,3.985,1.633a8.813,8.813,0,0,1-4.435-.615C341.007-81.006,340.6-81.155,340.872-81.627Zm-1.129,1.22c1.61.31,3.223.614,4.831.938.308.062.776.063.688.55a.723.723,0,0,1-1.031.587c-1.525-.561-3.03-1.172-4.544-1.764Zm4.292,2.87a15.21,15.21,0,0,1-5.8-1.346A8.923,8.923,0,0,1,344.034-77.537ZM337-77.354c.071-.678,1.383-.083,2.118,0,.665.074,1.965-.1,1.862.541-.188,1.188-1.317.043-1.853.377C338.291-76.829,336.893-76.351,337-77.354Zm3.087,1.634c.266-.029.444.1.407.393s-.079.611-.5.512c-1.429-.335-3.025-.12-4.663-1.466C337.231-76.133,338.626-75.558,340.085-75.72Zm-4.858,17.683c.225-.379.47-.416.841-.217,3.156,1.69,6.317,3.37,9.509,5.07-.693,1.026-1.432.555-2.12.45a.175.175,0,0,0-.006.027c-1.637-1.244-3.591-1.868-5.376-2.814-.909-.481-1.789-1.018-2.685-1.525C334.916-57.313,334.989-57.638,335.227-58.037Zm-.345,1.738c2.815,1.3,5.535,2.822,8.564,3.613-.044.315.644.588.059.943a1.224,1.224,0,0,1-1.267.173,33.294,33.294,0,0,1-8.42-4.9C334.307-56.891,334.562-56.446,334.882-56.3Zm-4.595,3.98,6.112,2.931c-1.664-1.525-3.85-2.327-5.495-3.937,1.775.441,3.16,1.738,4.918,2.174-1.36-.813-2.4-2.067-3.938-2.769.642-.791,1.2.12,1.793-.072l-.654-1.194a72.359,72.359,0,0,0,9.318,4.014c-1.45.791-2.253,1.876-3.651,1.929-.481,1.069-1.177.066-1.758.182.1.292.719.38.462.746-.419.6-1,.17-1.521.064.421,1.613-.923.788-1.469,1.066-1.337-1.4-2.436-3.073-4.336-3.9l4.069,1.541C333.038-50.725,331.313-50.963,330.287-52.319Zm.878,4.917c-.566-1.068-1.652-1.666-2.623-2.712a5.129,5.129,0,0,1,3.558,1.729,5.1,5.1,0,0,0,2.288,1.236c-.44,1.381-1.225,1.517-2.3.6l.5,1.013c-.559.287-.811-.365-1.254-.316-.937-1.427-2.694-2.033-3.913-3.715C329.21-49.225,329.756-47.574,331.165-47.4Zm-8.2-3.3c-.821.362-1.272,1.414-2.487.64C321.2-50.792,321.805-51.485,322.968-50.7Zm1.13,7.9c-.765-.268-1.224-.6-.381-1.285a4.593,4.593,0,0,0,1.778-2.156c.227-.7,1-1.4,2.08-.434a6.745,6.745,0,0,0,2.6,1.75,1.163,1.163,0,0,1-.615,1.4c-3.79,2.378-7.565,4.779-11.552,7.3C318.937-39.587,321.336-41.263,324.1-42.8ZM313.283-55.022a16.711,16.711,0,0,1,.061,4.664C312.953-52.1,311.8-53.259,313.283-55.022Zm-3.15-11.335c.829,1.326.7,1.638-1.748,3.76A17.916,17.916,0,0,1,310.133-66.356ZM202.852-68.493a13.392,13.392,0,0,1,.911,6.365C203.074-64.248,202.172-66.28,202.852-68.493Zm.228,7.89c1.4,3.242,1.413,6.249,1.472,9.249C203.393-54.182,203.441-57.2,203.08-60.6Zm2.9.972c-.895-3.827-1.773-7.154-1.432-10.658A29.659,29.659,0,0,1,205.981-59.631Zm.709-12.041c.785,4.444,1.942,8.84,1.639,13.417A37.758,37.758,0,0,1,206.691-71.672Zm2.137,25.588c-.731-3.34-1.8-6.68-1.5-10.219C208.059-52.949,209-49.63,208.827-46.084ZM210.38-75.1c.626-.074.478.515.5.852.1,1.706.167,3.414.244,5.122l-.278.018c-.312-1.68-.627-3.36-.934-5.041C209.832-74.578,209.889-75.041,210.38-75.1Zm1.208,33.838c-.771-2.9-1.607-5.8-1.424-8.855C210.7-47.174,211.8-44.323,211.589-41.261Zm.118-8.33c-1.9-6.768-2.062-13.739-2.328-20.7C210.215-63.4,212.388-56.661,211.707-49.592Zm1.471-26.992c.71-.06.383.57.4.876.068,1.135.062,2.274.084,3.412l-.377.057c-.218-1.1-.423-2.211-.661-3.312C212.512-76.078,212.6-76.535,213.178-76.584Zm.2,36.869c-.765-3.223-1.67-6.434-.815-10.264C213.362-46.307,213.918-43.064,213.381-39.714Zm.506-11.491c-1.056-6.134-1.217-12.342-1.551-18.538C214.194-63.676,213.989-57.439,213.887-51.205ZM215.7-77.587c.413.012.376.367.357.636-.1,1.352.287,2.718-.18,4.462l-.691-4.413C215.125-77.308,215.252-77.6,215.7-77.587Zm.6,29.008c-.255-3.643-.336-7.31-.814-10.923a70.136,70.136,0,0,1-.607-10.987C216.615-63.279,216.493-55.932,216.307-48.579ZM217.6-77.431c-.084-.473-.1-.959.569-1.007.718-.051.459.54.48.855.141,2.112.24,4.227.352,6.341l-.257.053C218.361-73.27,217.973-75.349,217.6-77.431Zm1.618,28.625a130.647,130.647,0,0,1-1.423-19.017C218.829-61.392,220.247-54.989,219.217-48.807Zm1.791-5.8q-.391-7.528-.782-15.055C221.844-64.715,221.168-59.65,221.008-54.611Zm.275-18.89a27.5,27.5,0,0,1-1-4.747c-.076-.38-.039-.708.385-.794.62-.127.624.374.629.752C221.31-76.816,221.291-75.341,221.283-73.5ZM222.9-63.223l-.269-5.521A9.225,9.225,0,0,1,222.9-63.223Zm.671-15.334c0,1.2-.027,2.4-.042,3.6l-.288-.019c-.212-1.174-.428-2.347-.634-3.522-.075-.426-.077-.83.531-.809C223.674-79.291,223.575-78.875,223.574-78.556Zm2.374-.057c-.09.9-.172,1.809-.3,3.124a10.083,10.083,0,0,1-.727-3.153c-.067-.4-.139-.837.5-.815C226-79.436,225.99-79.036,225.948-78.613ZM207.717-22.032l-1.41,3.655C206.325-19.649,205.879-21.1,207.717-22.032ZM204-19.42a8.86,8.86,0,0,1-1.254,3.864C202.908-16.826,202.536-18.27,204-19.42ZM196.44,2.316c-.294-.169-.27-.457-.225-.727a78.884,78.884,0,0,1,4.765-15.738C199.786-8.571,198.831-2.928,196.44,2.316Zm-.763-5.75a32.011,32.011,0,0,1,3.175-11.241C198.094-10.985,197.565-7.232,195.677-3.434Zm.456-8.972a17.531,17.531,0,0,1-2.018,7.435A17.357,17.357,0,0,1,196.133-12.406ZM189.518,3.557c-.076-2.375.91-4.45,1.664-6.588C191.4-.634,190.312,1.432,189.518,3.557ZM193.78-9.978a10.961,10.961,0,0,1-1.343,4.728C192.456-6.951,192.349-8.683,193.78-9.978Zm-1.3,15.013A14.128,14.128,0,0,1,194.24-1.86C193.686.446,193.71,2.9,192.478,5.035Zm1.265,3.312c-.563-2.191.445-4.084,1.144-6.035A21.449,21.449,0,0,1,193.743,8.347Zm1.127.723c0-2.579.956-4.606,1.585-6.705.521-.22.407-1.007,1.051-1.177A23.429,23.429,0,0,1,194.87,9.07Zm4.614-10.347a145.858,145.858,0,0,1,4.86-15.308C203.779-10.815,201.493-6.094,199.483-1.277Zm2.295-.5c1.849-4.923,2.657-10.195,5-14.959C206.064-11.444,203.888-6.623,201.778-1.778Zm2.915-1.034c.775-4.978,2.806-9.445,4.506-13.976C207.951-12.054,207.414-7.127,204.693-2.812ZM208.584-8.8l3.868-10.819C212.164-15.654,210.256-12.253,208.584-8.8Zm3.188-11.868c.374-1.737-.264-3.874,1.79-5.05ZM243.714,8.8a10.606,10.606,0,0,1-.306-5.556A15.1,15.1,0,0,1,243.714,8.8Zm1.478,2.941a27.611,27.611,0,0,1-.338-8.8C245.179,5.868,245.838,8.784,245.192,11.746Zm.556,5.458a12.14,12.14,0,0,1-.158-5.184A9.907,9.907,0,0,1,245.748,17.2Zm.569-8.75c.017-2.668.034-5.336.055-8.508A16.77,16.77,0,0,1,246.317,8.454Zm1.444,1.119L247.754-.515A25.816,25.816,0,0,1,247.761,9.573ZM249.537,6.5c-.637-2.454-.093-4.908-.164-7.355A18.986,18.986,0,0,1,249.537,6.5Zm1.237-3.482q.046-3.168.092-6.336C251.48-1.159,251.094.926,250.774,3.014Zm54.621-51.4c-.859,1.159-1.975,1.038-2.5,1.8l1.964-.335.141.355c-1.267.556-2.516,1.161-3.811,1.641-.394.146-.715-.241-.7-.729-.262-.079-.618-.077-.768-.253-.339-.4.147-.443.348-.52C301.695-47.042,303.33-47.631,305.395-48.385Zm-8.942,0c2.434-.576,4.48-1.941,7.233-2.126l-4.492,2.956,5.1-1.756a16.958,16.958,0,0,1-5.118,2.718c-.257.109-.566-.016-.54-.2a3.033,3.033,0,0,1,.434-.883C298.11-47.166,297.336-47.5,296.453-48.389Zm-27.123.767a31.261,31.261,0,0,1,5.869-10.24C274.028-54.011,271.274-51.06,269.33-47.622Zm4.227,3.874c-.111,1.168-.243,2.335-.323,3.5-.047.684-.351.9-1,.747-.757-.175-.446-.668-.308-1.062.386-1.1.811-2.187,1.221-3.278Zm-7.251-4.788c1.367-4.343,2.519-8.773,5.247-12.549C270.739-56.5,268.665-52.459,266.306-48.535Zm1.059,8.907c-1.086-2.018-.616-3.534.232-5.495A18.072,18.072,0,0,1,267.365-39.628ZM264.784-49a12.9,12.9,0,0,1,.643,4.979A9.063,9.063,0,0,1,264.784-49Zm.111,7.675c-.019.642-.224,1.071-1.029,1.024-.887-.052-.84-.537-.723-1.165a15.03,15.03,0,0,1,.92-3.575A14.73,14.73,0,0,1,264.895-41.324ZM263.43-57.8c.482-4.2,1.289-6.622,2.444-7.519C265.957-63.564,264.915-60.263,263.43-57.8ZM262.25-71.763c5.261-1.612,10.316-3.794,15.492-5.639a5.131,5.131,0,0,1,1.822-.39c-3.73,1.952-7.118,4.471-10.973,6.2,3.211-.517,5.837-2.73,9.175-2.968q-3.706,1.944-7.415,3.885c-.447.232-1.013.29-1.189.882,4.561-1.384,8.807-3.559,13.357-5.075-1.311.7-2.638,1.373-3.93,2.105-2.866,1.622-5.976,2.8-8.646,4.778a.074.074,0,0,0,0-.01,2.572,2.572,0,0,1-2.775-.427c-.47-.356-.091-.544.054-.8C265.581-69.141,262.817-70.559,262.25-71.763Zm23.956-13.959c-.681.132-.858-.225-.934-.671-.134-.78.6-.62.94-.631a63.4,63.4,0,0,1,8.391.7C291.807-85.925,288.975-86.26,286.207-85.722Zm10.653,1.228c-3.044.424-6.536.663-10.034.877-.709.043-.675-.449-.81-.828-.206-.575.17-.56.613-.682a6.972,6.972,0,0,1,2.555-.092C291.872-84.966,294.559-84.711,296.86-84.494ZM284.7-87.748c1.34-.986,2.738-.278,4.116-.147C287.437-87.964,286.072-87.71,284.7-87.748Zm.178,1.738c.116.458-.119.583-.521.644-.865.13-1.725.293-2.585.452-.38.07-.5-.159-.57-.457-.065-.276-.157-.552.27-.643.928-.2,1.851-.418,2.878-.652C284.688-86.679,284.787-86.357,284.875-86.011ZM273.526-65.849c1.475-.357,2.431-1.828,4.423-2.057-1.487,1.1-2.651,1.964-3.82,2.82-.324.237-.74.575-1.056.154S273.507-65.462,273.526-65.849Zm4.294-2.914a12.067,12.067,0,0,0-4.306,2.88c-1.292.517-1.3.513-2.49-.474,3.6-2.445,7.766-3.322,11.579-5.009l.2.408c-.815.373-1.627.754-2.447,1.116C279.515-69.471,278.668-69.117,277.821-68.763Zm-7.882.8,6.213-2.443c-1.708,1.627-3.73,2.285-5.2,3.719-.45.44-.855.022-1.219-.226C269.023-67.4,269.9-67.607,269.939-67.965Zm12.153-18.87c-.365.161-1.154.545-1.3-.113-.167-.725.713-.492,1.119-.64a12.315,12.315,0,0,1,1.819-.37c.342-.068.54.035.542.45C283.7-86.852,282.8-87.148,282.092-86.835Zm-13.8,23c.176-.344.4-.78.912-.464.283.175.263.481.133.767l-3.121,6.869A22.847,22.847,0,0,1,268.29-63.837Zm5.959-.366c-.21-.643.6-.7.953-1.011,2.145-1.857,4.816-2.443,7.469-3.074-2.457,1.263-5.02,2.334-6.942,4.419C275.209-63.909,274.485-63.482,274.249-64.2Zm1.491.352a41.176,41.176,0,0,1,11.288-4.259c-.837.459-1.668.926-2.511,1.373-.911.483-1.834.945-2.749,1.421-1.474.766-2.938,1.555-4.423,2.3C276.459-62.573,275.631-62.364,275.74-63.851Zm15.053-2.654a1.171,1.171,0,0,1-.92,1.272,84.61,84.61,0,0,0-7.347,4.538c-1.218.739-2.205,1.1-3.392-.392Zm-.068-11.647c.865-.178,1.855-.673,2.474.476a.42.42,0,0,0-.149.068c-.732.791-1.571.494-2.367.177C290.541-77.488,290.408-78.087,290.725-78.152ZM288.564-66.84c-2.959,1.67-5.953,3.277-8.9,4.965-.935.536-1.672.654-2.41-.512,4.013-2.175,8.3-3.651,12.612-5.635C289.6-67.152,288.986-67.078,288.564-66.84Zm-8.92,10.4a15.73,15.73,0,0,1-3.607,5.579C276.891-52.951,277.378-55.271,279.645-56.438Zm-.972,16.97c.65-1.262.685-2.9,2.253-3.785-.281,1.474-.558,2.8-.78,4.144-.127.762-.427,1.121-1.248.856C278.038-38.53,278.475-39.083,278.673-39.467Zm.748-10.709c.711-1.527,1.355-3.112,3.489-3.75A10.759,10.759,0,0,1,279.421-50.177Zm1.973,11.82c.531-1.335.643-2.885,2.041-4.1a14.084,14.084,0,0,1-.245,4.559c-.093.665-.74.313-1.151.285C281.6-37.64,281.183-37.826,281.394-38.356Zm1.872-19.6c-.7-.513.048-.728.174-1.071-.566-.083-1.2.686-1.848-.359,3.816-1.388,6.642-4.932,11.163-4.646-2.394,1.622-5.452,1.978-7.6,4.053,2.091-.262,3.9-1.369,5.883-1.96.65-.193,1.274-.593,2.106-.193A11.777,11.777,0,0,1,290.19-60.5c-1.793.919-3.594,1.826-5.363,2.79A1.285,1.285,0,0,1,283.266-57.952Zm11.285-2.865c-2.81,2.532-8.436,4.714-9.845,3.8C288.043-58.413,291.114-60.087,294.551-60.816Zm-7.62,8.406a8.26,8.26,0,0,1-2.665,3.124A6.776,6.776,0,0,1,286.931-52.41Zm-.379-3.386a28.28,28.28,0,0,1,5.22-2.195,26.762,26.762,0,0,0,3.424-1.5c.533-.207,1.4-.919,1.652-.249.32.835-.858.853-1.392,1.072a19.7,19.7,0,0,0-4.847,2.52c.006-.008.013-.014.019-.021-.934-.211-1.641.37-2.4.726C287.593-55.143,287.045-54.967,286.552-55.8Zm2.455.51c.5-.327,1.186-.317,1.583-.839a20.419,20.419,0,0,0,4.311-1.566,4.092,4.092,0,0,1,3.288-.087c-2.9,1.21-5.8,2.41-8.684,3.641-.582.248-1.125.164-1.329-.349C287.923-55.12,288.676-55.07,289.007-55.286Zm7.9.19c-2.363.624-4.257,2.952-7.016,1.956A13.592,13.592,0,0,1,296.911-55.1Zm4.251.658c-2.143,1.934-8.17,3.6-9.46,2.58A35.51,35.51,0,0,1,301.161-54.438Zm.984,1.308c-2.578,2.377-6.822,3.606-8.578,2.54Zm4.308-35.8c.531,1.641-.854,6.26-2.838,8.5Zm-2.811,19.3c-.262.836-1.381.3-2.109.429-.628.114-.889-.35-.792-.835.209-1.052,1.064-.113,1.464-.484C302.782-70.212,303.924-70.531,303.642-69.63Zm-.4-2.044a3.945,3.945,0,0,1-2.192.4.545.545,0,0,1-.641-.615c0-.428.328-.427.6-.385C301.734-72.158,302.614-72.585,303.244-71.674Zm-.817-2.347c.087.41-.227.459-.513.488-1.135.114-2.272.218-3.408.326-.424-.026-.849-.046-.892-.595-.056-.7.511-.48.848-.493,1.146-.045,2.294-.043,3.441-.057C302.147-74.355,302.372-74.283,302.428-74.022Zm-.669-2.013c-2.119.721-4.3.4-6.424.71-.648.093-1.222-.243-1.2-.892.02-.7.722-.429,1.1-.377C297.4-76.294,299.624-76.7,301.759-76.035Zm-.645-2.3c.127.887-.559.685-1.019.717-1.9.131-3.8.22-5.7.364-.488.037-.9.034-1.187-.418-.067-.747.385-.921,1.039-.977,1.895-.165,3.789-.346,5.677-.573A.917.917,0,0,1,301.115-78.331Zm-.894-2.317c-2.318.36-4.566.839-6.836,1a21.341,21.341,0,0,1-2.635.506c-.769-.038-.823-.5-.94-.97-.178-.722.363-.7.831-.726q4.475-.235,8.949-.465C299.825-81.317,300.043-81.246,300.221-80.649Zm-.948-2.571-.041.528c-3.49.385-6.982.757-10.469,1.165-.814.1-.8-.52-.9-.97-.116-.555.336-.408.663-.417Q293.9-83.058,299.273-83.219Zm-2.382-20.3a10.127,10.127,0,0,1-.776,5.423A24.956,24.956,0,0,1,296.891-103.523Zm-.2,14.367c-2.06.056-4.12.185-6.179.152a29.056,29.056,0,0,0-9.037,1c-.793.242-1.366.221-1.557-.708-.218-1.062.754-.957,1.223-1,3.85-.344,7.71-.055,11.564-.019C294.033-89.713,295.412-90.036,296.691-89.156ZM276.557-90.6c.193-.435.779-.468,1.264-.515,4.7-.447,9.415-.265,14.12-.437,1.083-.04,2.168-.035,3.253-.05,0,.09-.01.179-.014.269-4.182.3-8.364.614-12.546.906a39.758,39.758,0,0,0-4.407.9c-.413.076-.9.663-1.3.019C276.723-89.837,276.44-90.339,276.557-90.6Zm-15.6,17.984a9.692,9.692,0,0,0,3.3-1.241c4.018-1.729,8-3.528,12.017-5.271.465-.2.919-.757,1.567-.277-.255.644-.9.689-1.377.911-4.231,1.955-8.481,3.868-12.713,5.819-.532.245-1.19.314-1.538.883C261.7-71.94,260.619-71.25,260.956-72.617Zm1.036,6.937c.2-.416.4-.831.625-1.229.076-.132.25-.207.461-.371-.881,4.378-2.251,8.545-2.916,12.873a58.876,58.876,0,0,0-.563,12.578c.064,1.044-.148,1.4-1.278,1.391-3.031-.022-3.073.032-2.6-3.047A80.118,80.118,0,0,1,261.993-65.68Zm.212,25.153-.713-.046c.353-3.733.706-7.465,1.055-11.17C263.609-47.976,262.719-44.264,262.205-40.527Zm-2.569,4.878.474.324-3.159,4.264A16.172,16.172,0,0,1,259.636-35.649ZM254.715-31.3a25.772,25.772,0,0,1,4.314-6.525A24.208,24.208,0,0,1,254.715-31.3ZM243.949-75.531c.025-.284.1-.629.451-.608.472.029.467.428.388.768-.219.937-.466,1.868-.8,3.206A9.068,9.068,0,0,1,243.949-75.531Zm-2.778-1.578c.529,1.756-.438,3.323-.684,4.949C240.6-73.846,240.463-75.536,241.171-77.109ZM230.264-59.773c.617-3.777-.347-7.725,1.359-11.386C231.221-67.362,231.314-63.5,230.264-59.773Zm1.543-18.341c-.462,1.958-.871,3.93-1.3,5.9l-.262-.067c-.094-2-.157-4.011-.3-6.012-.051-.742.1-1.051.915-.985S232.012-78.979,231.807-78.113Zm1.335,7.527-.252-.016c.232-2.456.46-4.913.7-7.369.044-.452.048-.973.769-.838.79.148.626.7.505,1.2C234.3-75.265,233.718-72.927,233.142-70.586Zm1.891,6.075-.239-.057c.651-4.211,1.3-8.424,1.963-12.633.076-.477.071-1.126.889-.944.534.119.785.393.632.985Q236.643-70.839,235.033-64.511Zm-1.02,30-6.188,9.785c1.708-3.5,3.206-7.135,5.575-10.23ZM215.2-24.193c.03-1.229-.341-2.648,1.462-3.647Zm6.118,5.328a9.09,9.09,0,0,1,2.7-5.416Zm6.3-13.566-3.414,5.723C225.213-28.689,224.514-31.669,227.625-32.431Zm-.565,3.98c1.11-1.76,1.549-3.948,3.177-5.378l.494.312-3.3,5.309Zm-.7,14.747a1.552,1.552,0,0,1,.154-1.46c2.008-4.07,4.566-7.813,6.931-11.678a52.709,52.709,0,0,1-3.762,7.561A34.847,34.847,0,0,0,226.358-13.7Zm3.632-2.3c1.177-3.978,3.569-7.294,5.929-10.618C234.081-23,232.411-19.3,229.989-16.006Zm10.171-22.449c-.915-.056-.44-.78-.413-1.176.133-1.909.339-3.813.519-5.72l.26,0c.175,1.921.344,3.842.528,5.762C241.12-38.9,240.909-38.41,240.161-38.455Zm.222-19.656c-1.611,4.773-1.289,9.646-1.22,14.526.019,1.323.073,2.646.1,3.969a2.249,2.249,0,0,1-2.648,2.031c-.5-.136-.354-.51-.3-.834.121-.8.258-1.589.389-2.384l.229-.1.114,1.231c1.157-9.805,1.819-19.655,4.659-29.175C241.286-65.262,241.549-61.566,240.382-58.111Zm3.253,18.963c-.672.009-.493-.508-.464-.868.1-1.282.234-2.561.355-3.84l.308-.008c.177,1.283.337,2.57.541,3.849C244.475-39.39,244.186-39.156,243.636-39.148ZM242.9-54.294c-.841,3.651-.161,7.342-.257,11.013-.032,1.206.062,2.415.094,3.623.01.375-.083.7-.533.728-.417.026-.437-.291-.42-.582.522-9.083-.619-18.335,2.853-27.093A101.717,101.717,0,0,1,242.9-54.294Zm3.452,3.164c-.065,3.449.045,6.9.064,10.354,0,.543.146,1.241-.737,1.277-1.035.042-.634-.767-.652-1.24q-.2-5.261-.321-10.525c-.122-5.166,1.776-9.9,3.3-14.719a56.493,56.493,0,0,1-1.377,9.88A20.3,20.3,0,0,0,246.351-51.13Zm.824,11.4c-.67.023-.521-.457-.493-.823.084-1.07.2-2.138.3-3.207l.348.053c.149,1.058.3,2.116.444,3.175C247.833-40.077,247.718-39.747,247.175-39.728Zm4.963-25.217c-1.736,7.513-3.5,15.023-3.482,22.807C246.728-50.218,248.474-57.73,252.138-64.945Zm-1.156,24.8c-.735.087-1.509.426-2.2.073-.423-.216-.066-.731.012-1.1q.728-3.458,1.474-6.912l.336.022q.389,3.494.775,6.99C251.419-40.7,251.615-40.224,250.982-40.149Zm1.776-.1c-.752.034-.868-.331-.875-.921-.042-3.968-.1-7.935-.127-11.9a2.392,2.392,0,0,1,.224-1c1.262-2.7,2.545-5.395,3.822-8.09l.261.088a14.6,14.6,0,0,1-.631,2.119c-2.318,4.97-2.38,10.21-1.946,15.52.084,1.031.064,2.07.16,3.1C253.713-40.628,253.556-40.288,252.758-40.251Zm1.389-.337q.508-5.373,1.015-10.746l.219.046q-.506,5.361-1.014,10.721Zm-3.378,25.416c.476-1.716.772-3.489,2.416-4.921A14.054,14.054,0,0,1,250.769-15.172Zm3.036-8.172-.356-.252,6.475-8.958.492.348C258.7-28.909,255.892-26.381,253.8-23.344Zm-1.155,10.6a58.926,58.926,0,0,1,6.126-9.178C257.319-18.606,256.41-14.942,252.65-12.741Zm7.276.035a14.962,14.962,0,0,1,1.086-5.333C261.3-16.134,260.1-14.536,259.926-12.706Zm.938,8.354c0-2.547.939-4.9,1.428-7.348C262.447-9.12,261.486-6.77,260.864-4.351ZM258.152-25.9l-.335-.283,8.01-9.382C263.746-31.942,260.826-29.026,258.152-25.9Zm4.633,19.669a20.763,20.763,0,0,1,1.444-7.236A39.11,39.11,0,0,1,262.785-6.233Zm.831-15.341a10.827,10.827,0,0,1,2.64-3.287C265.61-23.608,265.315-22.059,263.616-21.574Zm2.093,18.837a23.577,23.577,0,0,1,2.18-12.025A121.685,121.685,0,0,0,265.709-2.738Zm3.8-37.074c-.368-.071-.985,0-.845-.564.514-2.057.741-4.224,2.251-5.972-.183,1.933-.373,3.865-.543,5.8C270.325-39.994,270.108-39.7,269.511-39.811Zm.786,6.5a6.663,6.663,0,0,1,2.6-2.956C272.478-34.889,271.286-34.194,270.3-33.311Zm2.323,7.105,5.7-5.234.316.347C276.713-29.376,275.456-26.925,272.62-26.206Zm4.034,9.178a33.489,33.489,0,0,1,2.5-7.461A31.4,31.4,0,0,1,276.654-17.028Zm.252-10.221-.327-.314,5.544-5.079.292.315C280.671-30.538,279.222-28.433,276.907-27.249Zm8.379-6.451.353.3-3.421,3.7C282.691-31.922,284.512-32.355,285.285-33.7Zm3.211,3.994c-1.639.25-3.285.455-4.928.679l-.218-.268c1.163-1.1,2.319-2.2,3.491-3.284.408-.379.8-.58.872.267.009.109-.076.594.283.16.752-.91,1.223-.279,1.3.4C289.382-31.029,289.872-29.916,288.5-29.706Zm.514-9.974a3.244,3.244,0,0,0-.8,2.041c0,.794-.135,1.508-1.158.928-1.324.065-1.469-.581-1.151-1.63a4.3,4.3,0,0,1,1.344-2.147c1.315-1.118,2.568-2.308,3.869-3.442.258-.225.473-.832.933-.44.54.46-.044.826-.288,1.151C290.862-42.025,289.927-40.859,289.01-39.68Zm1.635,3.838c-.405-.088-.779-.255-.735-.782.089-1.061-.022-2.116.993-2.951a12.114,12.114,0,0,1,4.546-2.659c-1.2,1.438-2.157,2.578-3.111,3.717-.51.609-1.13,1.145-1.109,2.056C291.237-36.123,291.142-35.734,290.645-35.842Zm1.176,5.746c-.308.032-.735.149-.815-.32a1.328,1.328,0,0,1,.166-.8c.168-.306.509-.222.75-.1.526.268,1.2.3,1.633.944C292.908-30.263,292.368-30.152,291.821-30.1Zm2.551-5.853c-.276.438-.345,1.025-1.07.779-.478-.162-1.158-.118-1.337-.647-.2-.6.26-1.016.713-1.439,1.513-1.416,2.95-2.913,4.448-4.346.52-.5,1-1.126,1.885-1.162a1.108,1.108,0,0,1-.522,1.33C296.663-39.939,295.594-37.885,294.372-35.948Zm8.908-1.561a4.285,4.285,0,0,0-1.291,2.2c-.24,1.765-1.762,1.259-2.541,1.827-.621-.232-1.042-.421-1.481-.546-.8-.228-2.024-.078-2.263-.828-.308-.967.932-1.431,1.535-2.065,1.1-1.152,2.522-1.91,3.7-3,1.335-1.242,1.584.858,2.512,1.146C304.351-38.5,303.657-37.909,303.281-37.509ZM263.561,181.824a1.516,1.516,0,1,1-.73,2.038A1.58,1.58,0,0,1,263.561,181.824Zm155.693,54.584a103.861,103.861,0,0,1,.29,10.563c-.3,4.506-.642,7.845-.86,9.747a11.563,11.563,0,0,1-2.3-3.146C415.817,251.941,417.425,242.116,419.254,236.408Zm-22.3-73.037a10.688,10.688,0,0,1-.8,2.712s-1.923.5-3.873.916v-.015A9.517,9.517,0,0,0,396.957,163.371Zm2.968,74.29a58.837,58.837,0,0,0-10.315-2.7,3.591,3.591,0,0,0,.7-.168l19-7.8c.122-.045.246-.1.371-.154-.179,3.33-.573,12.424.18,16.84a20.068,20.068,0,0,1,.244,2.145,23.244,23.244,0,0,0-2.579-3.3A20.158,20.158,0,0,0,399.925,237.661Z" fill="#a87163"/>
    </g>
  </svg>
  